<svg width="336" height="507" viewBox="0 0 336 507" fill="none" xmlns="http://www.w3.org/2000/svg">
<circle cx="167.549" cy="167.549" r="167.549" fill="#FF993A" fill-opacity="0.35"/>
<path d="M232.095 158.744C232.095 158.744 220.67 160.32 219.094 166.624C217.518 172.927 210.032 215.477 206.88 223.751C203.729 232.024 202.153 237.54 204.91 241.874C207.668 246.207 214.366 241.874 218.306 233.6C222.246 225.326 226.185 178.837 228.943 172.533C230.705 168.129 231.768 163.477 232.095 158.744Z" fill="white" stroke="#263238" stroke-linecap="round" stroke-linejoin="round"/>
<path d="M223.948 203.169C225.823 189.443 227.541 175.748 228.944 172.533C230.705 168.129 231.769 163.477 232.096 158.744C232.096 158.744 220.67 160.32 219.094 166.624C218.196 170.233 215.344 185.755 212.491 199.907C216.011 201.855 219.93 202.971 223.948 203.169Z" fill="#FF993A" stroke="#263238" stroke-linecap="round" stroke-linejoin="round"/>
<path d="M228.945 446.742L230.127 482.2C230.127 482.2 215.943 490.867 208.852 494.019C201.76 497.171 213.974 499.141 218.307 499.141C222.641 499.141 230.521 495.989 235.248 495.989C239.976 495.989 244.31 497.171 244.31 490.473C244.31 483.776 243.522 446.348 243.522 446.348L228.945 446.742Z" fill="white" stroke="#263238" stroke-linecap="round" stroke-linejoin="round"/>
<path d="M244.31 490.473C244.31 489.937 244.31 489.181 244.31 488.283C237.858 489.897 231.267 490.894 224.627 491.261L220.45 487.904C216.416 490.205 211.972 492.632 208.867 494.019C201.776 497.171 213.989 499.141 218.323 499.141C222.657 499.141 230.536 495.989 235.264 495.989C239.992 495.989 244.31 497.171 244.31 490.473Z" fill="#FF993A" stroke="#263238" stroke-linecap="round" stroke-linejoin="round"/>
<path d="M267.947 449.106C267.947 449.106 273.069 483.382 277.009 490.867C280.949 498.353 288.04 505.051 291.192 506.233C294.344 507.415 299.466 503.475 295.132 495.201C290.798 486.928 283.312 479.836 281.343 474.714C279.373 469.593 283.312 447.924 283.312 447.924L267.947 449.106Z" fill="white" stroke="#263238" stroke-linecap="round" stroke-linejoin="round"/>
<path d="M291.193 506.232C294.345 507.414 299.466 503.474 295.133 495.201C294.208 493.464 293.187 491.781 292.075 490.158C289.096 490.985 286.009 491.357 282.919 491.261C280.54 491.025 277.151 487.463 274.851 484.689C275.367 486.814 276.09 488.883 277.01 490.867C280.949 498.353 288.041 505.05 291.193 506.232Z" fill="#FF993A" stroke="#263238" stroke-linecap="round" stroke-linejoin="round"/>
<path d="M218.7 241.084C218.7 241.084 216.336 262.359 214.76 277.33C212.837 294.462 212.179 311.712 212.79 328.941C213.578 348.246 217.124 391.584 219.488 403.403C221.396 413.142 222.451 423.029 222.64 432.951C222.64 438.467 223.428 448.71 223.428 448.71C226.917 450.691 230.843 451.774 234.853 451.862C238.692 451.857 242.52 451.461 246.279 450.68C246.279 450.68 247.855 417.192 246.279 402.615C244.703 388.038 245.491 336.821 245.885 328.941C246.279 321.062 247.461 295.847 247.461 295.847C247.461 295.847 252.976 334.457 256.128 353.762C259.28 373.067 262.038 451.862 262.038 451.862C266.533 453.095 271.166 453.757 275.827 453.832C280.584 453.68 285.266 452.61 289.616 450.68C289.616 450.68 286.858 389.614 286.858 374.643C286.858 359.671 292.374 290.331 289.222 277.724C286.07 265.117 279.373 244.236 279.373 244.236L218.7 241.084Z" fill="#263238" stroke="#263238" stroke-linecap="round" stroke-linejoin="round"/>
<path d="M238.888 279.947L246.058 299.315" stroke="white" stroke-linecap="round" stroke-linejoin="round"/>
<path d="M272.282 149.682C260.463 146.136 252.189 150.47 252.189 150.47C252.189 150.47 238.006 155.985 232.096 158.743C226.959 161.139 226.218 170.909 225.068 180.412C223.161 184.699 217.74 197.274 216.731 204.334C216.495 206.075 216.607 207.845 217.062 209.541C217.517 211.237 218.304 212.826 219.379 214.215C217.803 222.773 216.463 230.621 215.943 234.387C214.761 243.055 215.943 245.812 224.611 247.388C233.278 248.964 279.374 248.176 280.556 246.6C281.738 245.025 279.374 236.751 286.071 224.932C292.769 213.112 304.194 172.533 304.194 167.411C304.194 162.289 284.102 153.228 272.282 149.682Z" fill="#FF993A" stroke="#263238" stroke-linecap="round" stroke-linejoin="round"/>
<path d="M292.594 199.512L283.675 191.16" stroke="#263238" stroke-linecap="round" stroke-linejoin="round"/>
<path d="M278.663 214.562C278.663 214.562 268.641 219.574 260.272 219.022" stroke="#263238" stroke-linecap="round" stroke-linejoin="round"/>
<path d="M254.158 148.894C254.158 148.894 248.248 152.44 247.854 155.591C247.46 158.743 238.005 167.805 238.005 167.805C238.005 167.805 247.46 163.077 250.218 162.289C252.976 161.501 262.038 153.622 259.28 149.288C256.522 144.954 254.158 148.894 254.158 148.894Z" fill="#FF993A" stroke="#263238" stroke-linecap="round" stroke-linejoin="round"/>
<path d="M246.674 137.862C246.674 137.862 251.402 147.712 251.402 152.833V177.654L264.403 148.5C265.979 144.954 265.979 128.801 265.979 128.801C265.979 128.801 251.796 138.65 246.674 137.862Z" fill="white" stroke="#263238" stroke-linecap="round" stroke-linejoin="round"/>
<path d="M236.429 87.8273C236.429 87.8273 231.701 93.343 231.701 99.6467C231.701 105.95 231.607 116.651 228.786 118.952C225.965 121.252 225.334 121.252 226.91 123.679C228.229 125.259 230.027 126.366 232.032 126.831C232.032 126.831 236.366 138.651 239.518 141.014C242.67 143.378 262.368 135.893 262.368 135.893C262.368 135.893 276.158 120.922 273.006 106.738C269.854 92.5551 252.188 72.0682 236.429 87.8273Z" fill="white" stroke="#263238" stroke-linecap="round" stroke-linejoin="round"/>
<path d="M237.926 114.097C237.926 115.672 237.359 116.933 236.682 116.933C236.004 116.933 235.437 115.657 235.437 114.097C235.437 112.536 235.988 111.244 236.682 111.244C237.375 111.244 237.926 112.521 237.926 114.097Z" fill="#263238"/>
<path d="M234.728 105.571C234.728 105.571 236.855 101.301 241.819 106.281" stroke="#263238" stroke-linecap="round" stroke-linejoin="round"/>
<path d="M236.146 129.006C237.187 129.066 238.23 128.907 239.206 128.541C240.183 128.175 241.073 127.609 241.819 126.879" stroke="#263238" stroke-linecap="round" stroke-linejoin="round"/>
<path d="M267.554 143.771L258.887 155.985C259.643 159.962 261.256 163.726 263.614 167.016C267.554 172.532 269.918 179.23 270.312 176.472C270.706 173.714 269.918 167.41 270.706 163.864C271.494 160.319 275.04 150.469 275.04 150.469L267.554 143.771Z" fill="#FF993A" stroke="#263238" stroke-linecap="round" stroke-linejoin="round"/>
<path d="M291.192 189.08C291.192 189.08 297.701 235.759 297.102 241.085C295.794 252.684 312.861 258.42 315.225 250.935C317.589 243.449 308.512 177.529 308.086 173.605C307.267 166.245 300.096 160.871 294.975 159.689" fill="#FF993A"/>
<path d="M291.192 189.08C291.192 189.08 297.701 235.759 297.102 241.085C295.794 252.684 312.861 258.42 315.225 250.935C317.589 243.449 308.512 177.529 308.086 173.605C307.267 166.245 300.096 160.871 294.975 159.689" stroke="#263238" stroke-linecap="round" stroke-linejoin="round"/>
<path d="M315.226 250.934C316.676 246.332 313.808 219.636 311.286 198.85C304.984 199.231 298.821 200.87 293.163 203.672C295.023 217.855 297.481 237.712 297.103 241.084C295.795 252.683 312.862 258.419 315.226 250.934Z" fill="white" stroke="#263238" stroke-linecap="round" stroke-linejoin="round"/>
<path d="M315.224 250.934C315.224 250.934 313.649 239.509 308.527 237.145C303.405 234.781 290.01 236.751 280.948 234.781C272.544 232.791 263.969 231.604 255.34 231.235C248.642 231.235 234.459 230.841 234.065 232.417C233.671 233.993 241.551 238.327 248.642 239.115C254.545 239.528 260.469 239.528 266.371 239.115C268.341 239.115 293.162 249.752 301.435 253.298C309.709 256.844 313.649 255.662 315.224 250.934Z" fill="white" stroke="#263238" stroke-linecap="round" stroke-linejoin="round"/>
<path d="M245.806 233.016L253.591 235.884H257.688" stroke="#263238" stroke-linecap="round" stroke-linejoin="round"/>
<path d="M239.581 226.918C235.089 226.918 232.269 225.531 231.37 218.361C231.163 217.358 231.21 216.319 231.507 215.339C231.804 214.359 232.343 213.469 233.072 212.75C235.751 210.276 240.306 211.175 240.81 211.175C241.238 211.289 241.606 211.564 241.838 211.941C242.07 212.318 242.148 212.77 242.058 213.204C241.967 213.638 241.714 214.02 241.35 214.273C240.986 214.526 240.539 214.629 240.101 214.563C239.25 214.389 236.571 214.137 235.373 215.209C235.168 215.414 234.554 215.981 234.774 217.841C235.483 223.545 236.539 223.656 242.023 223.262C242.258 223.23 242.496 223.247 242.724 223.311C242.952 223.375 243.164 223.485 243.348 223.634C243.532 223.783 243.683 223.968 243.793 224.178C243.902 224.387 243.968 224.617 243.985 224.853C244.002 225.089 243.971 225.326 243.893 225.55C243.815 225.773 243.692 225.978 243.532 226.153C243.372 226.327 243.178 226.467 242.962 226.563C242.746 226.659 242.512 226.71 242.276 226.713C241.393 226.855 240.432 226.918 239.581 226.918Z" fill="white" stroke="#263238" stroke-linecap="round" stroke-linejoin="round"/>
<path d="M252.424 230.841H245.206C244.072 230.841 242.979 230.415 242.144 229.647C241.31 228.88 240.794 227.826 240.699 226.696L239.123 208.211H258.507L256.931 226.696C256.836 227.826 256.32 228.88 255.485 229.647C254.651 230.415 253.558 230.841 252.424 230.841Z" fill="white" stroke="#263238" stroke-linecap="round" stroke-linejoin="round"/>
<path d="M259.974 232.087H236.698L233.782 229.66H262.874L259.974 232.087Z" fill="white" stroke="#263238" stroke-linecap="round" stroke-linejoin="round"/>
<path d="M219.094 223.355C219.094 223.355 208.063 225.325 203.445 232.732C202.263 234.623 201.759 245.812 206.093 249.358C210.426 252.904 216.73 243.054 219.882 237.539C223.034 232.023 226.186 225.325 226.186 225.325L219.094 223.355Z" fill="white" stroke="#263238" stroke-linecap="round" stroke-linejoin="round"/>
<path d="M240.368 76.4017C240.368 76.4017 225.397 75.6137 227.761 89.009C230.125 102.404 249.824 96.1006 253.763 108.314C257.703 120.527 247.066 148.894 249.036 150.076C251.006 151.258 275.432 146.924 278.584 141.802C281.736 136.68 287.252 122.497 284.1 101.616C280.948 80.7354 262.825 69.7041 240.368 76.4017Z" fill="#263238" stroke="#263238" stroke-linecap="round" stroke-linejoin="round"/>
<path d="M217.833 221.387C217.833 221.387 219.488 211.206 221.457 208.779C223.427 206.352 235.404 215.288 235.404 215.288C235.404 215.288 236.98 218.44 235.121 219.133C234.479 219.308 233.805 219.329 233.153 219.195C232.501 219.06 231.891 218.775 231.37 218.361C231.37 218.361 231.701 226.114 229.337 228.084C226.973 230.054 218.7 228.478 217.124 226.114C215.548 223.75 217.833 221.387 217.833 221.387Z" fill="white" stroke="#263238" stroke-linecap="round" stroke-linejoin="round"/>
<path d="M222.529 213.27L231.37 218.36" stroke="#263238" stroke-linecap="round" stroke-linejoin="round"/>
<path d="M219.678 217.461C219.678 217.461 225.887 221.48 230.583 221.826" stroke="#263238" stroke-linecap="round" stroke-linejoin="round"/>
<path d="M217.833 221.385C221.537 223.814 225.826 225.202 230.251 225.403" stroke="#263238" stroke-linecap="round" stroke-linejoin="round"/>
<path d="M111.479 464.98L112.32 489.776L99.4866 490.392L94.8129 464.98H111.479Z" fill="white" stroke="#263238" stroke-linecap="round" stroke-linejoin="round"/>
<path d="M136.589 497.379C132.261 495.876 124.777 493.322 121.967 491.563C119.713 490.151 116.572 485.552 114.243 484.26C113.754 484.048 113.227 483.939 112.695 483.939C112.163 483.939 111.636 484.048 111.147 484.26C110.769 484.68 110.523 485.203 110.441 485.763C110.376 486.005 110.242 486.224 110.054 486.39C109.867 486.557 109.634 486.664 109.386 486.7C109.137 486.735 108.884 486.696 108.657 486.588C108.431 486.481 108.241 486.308 108.112 486.093C107.752 485.387 107.238 484.771 106.609 484.29C104.625 483.178 99.2602 482.862 97.5019 484.29C94.5865 486.679 93.5346 494.915 92.9936 498.627C92.8583 499.438 92.9936 503.946 92.9936 503.946H139.82V501.888C139.827 500.891 139.517 499.918 138.937 499.109C138.357 498.299 137.535 497.693 136.589 497.379Z" fill="white" stroke="#263238" stroke-linecap="round" stroke-linejoin="round"/>
<path d="M92.9636 503.917H139.82V501.858C139.821 501.346 139.735 500.838 139.565 500.355H92.9035C92.9035 501.933 92.9636 503.917 92.9636 503.917Z" fill="#858585" stroke="#263238" stroke-linecap="round" stroke-linejoin="round"/>
<path d="M103.378 272.744L113.222 474.417L95.1883 477.423C95.1883 477.423 83.8273 419.055 82.4447 399.939C82.1141 395.431 82.4447 381.831 82.4447 381.831L69.6861 319.03C69.6861 319.03 61.2856 311.275 60.3088 274.352L103.378 272.744Z" fill="#263238" stroke="#263238" stroke-linecap="round" stroke-linejoin="round"/>
<path opacity="0.7" d="M76.6881 350.799C75.9968 347.883 75.1853 345.013 74.2085 342.158C74.0582 341.752 73.8779 341.376 73.6976 341C73.2497 336.732 72.5623 332.493 71.6387 328.302C71.3205 326.736 70.4776 325.326 69.2493 324.305C68.8986 323.512 68.3752 322.808 67.7174 322.244C67.0596 321.68 66.284 321.269 65.4473 321.044C65.9997 317.163 66.8436 313.331 67.972 309.577C69.1141 305.64 70.9776 301.868 71.5336 297.795C71.6839 296.744 72.285 295.647 72.0896 295.526C73.3815 295.023 74.6456 294.451 75.8766 293.813L76.102 293.633C77.254 312.666 77.4496 331.745 76.6881 350.799Z" fill="black"/>
<path d="M104.234 388.098C101.043 387.359 98.1124 385.764 95.7587 383.484" stroke="#7F7F7F" stroke-width="0.75" stroke-linecap="round" stroke-linejoin="round"/>
<path d="M115.597 478.249L93.7914 480.037L92.1683 472.974L115.597 471.141V478.249Z" fill="#FF993A" stroke="#263238" stroke-linecap="round" stroke-linejoin="round"/>
<path d="M52.6299 461.93L47.9863 490.918L36.1143 489.987L36.5051 460.307L52.6299 461.93Z" fill="white" stroke="#263238" stroke-linecap="round" stroke-linejoin="round"/>
<path d="M72.5116 497.38C68.1686 495.877 60.6847 493.322 57.8895 491.564C55.6354 490.152 52.4796 485.553 50.1653 484.261C49.6742 484.049 49.1449 483.939 48.6099 483.939C48.0749 483.939 47.5456 484.049 47.0545 484.261C46.7829 484.541 46.591 484.888 46.4985 485.268C46.4178 485.555 46.2533 485.812 46.0259 486.006C45.7986 486.199 45.5187 486.321 45.222 486.355C44.9253 486.389 44.6252 486.333 44.3601 486.196C44.0949 486.058 43.8768 485.845 43.7334 485.583C43.4273 485.065 43.0181 484.615 42.5311 484.261C40.5475 483.149 35.1825 482.833 33.4243 484.261C30.5089 486.65 29.4569 494.885 28.9159 498.597C28.7957 499.409 28.9159 503.917 28.9159 503.917H75.7275V501.858C75.7286 500.869 75.4187 499.904 74.8416 499.101C74.2645 498.297 73.4495 497.695 72.5116 497.38Z" fill="white" stroke="#263238" stroke-linecap="round" stroke-linejoin="round"/>
<path d="M28.8706 503.917H75.7273V501.858C75.7329 501.347 75.6515 500.839 75.4868 500.355H28.8255C28.8255 501.933 28.8706 503.917 28.8706 503.917Z" fill="#858585" stroke="#263238" stroke-linecap="round" stroke-linejoin="round"/>
<path d="M78.2822 278.83C78.2822 278.83 73.7739 304.934 69.6262 326.829C66.801 341.677 66.6206 385.543 66.6206 385.543L52.224 476.115L34.4762 473.726C34.4762 473.726 34.2658 417.973 36.2645 400.09C36.7153 396.107 37.4517 384.28 37.4517 384.28C37.4517 384.28 36.7754 336.973 33.1237 321.164C30.5089 309.893 25.3092 298.051 31.6209 274.953L78.2822 278.83Z" fill="#263238" stroke="#263238" stroke-linecap="round" stroke-linejoin="round"/>
<path d="M62.7295 388.098C60.9232 390.596 58.2391 392.319 55.2156 392.922" stroke="#7F7F7F" stroke-width="0.75" stroke-linecap="round" stroke-linejoin="round"/>
<path d="M55.1992 472.042L54.1773 478.684L32.1767 476.325L32.3269 469.172L55.1992 472.042Z" fill="#FF993A" stroke="#263238" stroke-linecap="round" stroke-linejoin="round"/>
<path d="M162.032 158.083L166.886 149.923C166.886 149.923 168.058 136.593 170.763 133.993C173.468 131.393 179.479 123.744 180.336 125.247C181.688 127.651 176.684 131.934 176.684 131.934L175.767 136.893C175.767 136.893 183.867 131.063 186.151 131.063C186.151 131.063 192.613 123.413 194.898 123.398C197.182 123.383 193.966 128.688 193.966 128.688C193.966 128.688 196.145 127.02 196.566 128.057C196.986 129.094 193.756 132.641 193.756 132.641C193.756 132.641 195.003 133.993 193.124 136.893C193.384 137.83 193.381 138.821 193.116 139.756C192.851 140.692 192.334 141.537 191.622 142.198C189.127 144.182 175.722 151.771 175.722 151.771L171.214 162.381L162.032 158.083Z" fill="#858585" stroke="#263238" stroke-linecap="round" stroke-linejoin="round"/>
<path d="M191.982 132.85C191.982 132.85 190.209 133.571 190.945 136.171C190.238 137.176 189.84 138.368 189.803 139.597C189.623 141.881 178.052 140.754 174.926 145.608" stroke="#263238" stroke-width="0.75" stroke-linecap="round" stroke-linejoin="round"/>
<path d="M191.982 130.041L187.264 135.03" stroke="#263238" stroke-width="0.75" stroke-linecap="round" stroke-linejoin="round"/>
<path d="M111.929 156.023L142.902 180.158L164.121 151.244L174.926 156.654C174.926 156.654 157.944 203.571 145.096 203.571C131.435 203.571 105.467 181.63 105.467 181.63C105.467 181.63 103.829 177.438 111.929 156.023Z" fill="#FF993A" stroke="#263238" stroke-linecap="round" stroke-linejoin="round"/>
<path d="M141.729 182.457C141.004 183.996 140.464 185.615 140.121 187.281" stroke="#263238" stroke-width="0.75" stroke-linecap="round" stroke-linejoin="round"/>
<path d="M111.93 156.023L105.333 243.35V279.627C105.333 279.627 67.3272 284.135 29.8328 278.665L31.1252 241.321L27.3232 158.082C27.3232 158.082 44.7254 145.504 71.4448 145.504C98.1643 145.504 111.93 156.023 111.93 156.023Z" fill="#FF993A" stroke="#263238" stroke-linecap="round" stroke-linejoin="round"/>
<path opacity="0.2" d="M29.8332 278.666L31.0354 245.199C31.6816 261.324 49.4745 255.268 53.502 254.516C57.8149 253.705 62.7741 267.921 62.7741 267.921C62.7741 267.921 79.3047 270.762 92.2436 269.755C105.183 268.748 105.378 256.936 105.378 256.936V279.628C105.378 279.628 67.3275 284.196 29.8332 278.666Z" fill="black"/>
<path d="M87.5234 242.508C71.5858 240.794 56.2911 235.286 42.9209 226.443L87.5234 242.508Z" fill="#FF993A"/>
<path d="M87.5234 242.508C71.5858 240.794 56.2911 235.286 42.9209 226.443" stroke="#263238" stroke-width="0.75" stroke-linecap="round" stroke-linejoin="round"/>
<path d="M94.1523 242.958C94.1523 242.958 92.875 242.958 90.6208 242.793L94.1523 242.958Z" fill="#FF993A"/>
<path d="M94.1523 242.958C94.1523 242.958 92.875 242.958 90.6208 242.793" stroke="#263238" stroke-width="0.75" stroke-linecap="round" stroke-linejoin="round"/>
<path d="M81.2885 160.231L87.8707 157.841L94.1523 163.912L89.5538 145.128L84.0086 140.77L81.1833 142.558L68.56 142.077L58.7468 142.873L54.0732 141.431L49.084 146.42L60.1895 167.654L64.8481 159.614L75.1271 160.892L81.2885 160.231Z" fill="#FF993A"/>
<mask id="mask0_209_3740" style="mask-type:luminance" maskUnits="userSpaceOnUse" x="49" y="140" width="46" height="28">
<path d="M81.2895 160.231L87.8717 157.841L94.1533 163.912L89.5548 145.128L84.0096 140.77L81.1843 142.558L68.561 142.077L58.7478 142.873L54.0742 141.431L49.085 146.42L60.1905 167.654L64.8491 159.614L75.1281 160.892L81.2895 160.231Z" fill="white"/>
</mask>
<g mask="url(#mask0_209_3740)">
<path opacity="0.5" d="M81.2895 160.231L87.8717 157.841L94.1533 163.912L89.5548 145.128L84.0096 140.77L81.1843 142.558L68.561 142.077L58.7478 142.873L54.0742 141.431L49.085 146.42L60.1905 167.654L64.8491 159.614L75.1281 160.892L81.2895 160.231Z" fill="white"/>
</g>
<path d="M81.2885 160.231L87.8707 157.841L94.1523 163.912L89.5538 145.128L84.0086 140.77L81.1833 142.558L68.56 142.077L58.7468 142.873L54.0732 141.431L49.084 146.42L60.1895 167.654L64.8481 159.614L75.1271 160.892L81.2885 160.231Z" stroke="#263238" stroke-linecap="round" stroke-linejoin="round"/>
<path d="M59.4215 146.361L60.9243 123.398L75.4411 125.968L78.4467 136.758L81.4522 146.105L82.8799 146.256L78.9276 167.715L57.9788 146.677L59.4215 146.361Z" fill="#858585"/>
<mask id="mask1_209_3740" style="mask-type:luminance" maskUnits="userSpaceOnUse" x="57" y="123" width="26" height="45">
<path d="M59.4235 146.361L60.9262 123.398L75.4431 125.968L78.4486 136.758L81.4542 146.105L82.8818 146.256L78.9295 167.715L57.9808 146.677L59.4235 146.361Z" fill="white"/>
</mask>
<g mask="url(#mask1_209_3740)">
<path d="M95.1133 124.992C95.1133 130.823 94.2116 143.867 86.2018 145.385C77.9064 146.963 68.3938 137.525 64.9825 133.753C64.1279 132.816 63.4597 131.725 63.0139 130.537L61.1955 125.714C60.008 125.804 58.8193 125.554 57.7692 124.992H95.1133Z" fill="#263238" stroke="#263238" stroke-width="0.5" stroke-linecap="round" stroke-linejoin="round"/>
</g>
<path d="M59.4215 146.361L60.9243 123.398L75.4411 125.968L78.4467 136.758L81.4522 146.105L82.8799 146.256L78.9276 167.715L57.9788 146.677L59.4215 146.361Z" stroke="#263238" stroke-linecap="round" stroke-linejoin="round"/>
<path d="M85.4361 95.5061C85.4361 95.5061 92.3038 90.2764 88.9375 86.1588C87.1793 84.0248 84.895 86.835 84.895 86.835C84.895 86.835 86.1123 80.2829 81.2283 79.3211C76.7199 78.4796 76.9002 83.6491 76.9002 83.6491C76.9002 83.6491 74.571 79.2159 70.4984 80.2078C67.2524 80.9892 68.4997 85.5877 68.4997 85.5877C68.4997 85.5877 64.1717 80.2078 59.6934 82.5822C55.8313 84.6109 59.0172 89.4799 59.0172 89.4799C59.0172 89.4799 54.4187 87.8569 51.8489 90.4417C49.2792 93.0265 51.8489 96.4528 51.8489 96.4528C51.8489 96.4528 46.7845 96.4528 46.5591 100.24C46.3337 104.027 50.4814 104.748 50.4814 104.748C50.4814 104.748 44.6206 106.642 44.5755 111.24C44.5304 115.839 48.4526 114.366 48.4526 114.366C48.4526 114.366 46.0181 118.694 48.0469 120.993C48.2747 121.301 48.5714 121.551 48.9133 121.723C49.2552 121.895 49.6327 121.985 50.0155 121.985C50.3984 121.985 50.7758 121.895 51.1177 121.723C51.4596 121.551 51.7564 121.301 51.9842 120.993C51.9842 120.993 49.4445 126.448 52.6604 128.041C54.9597 129.168 56.3122 126.403 56.3122 126.403C56.3122 126.403 58.2508 131.122 60.5951 128.237C62.9394 125.351 74.571 103.125 74.571 103.125L85.4361 95.5061Z" fill="#263238" stroke="#263238" stroke-width="0.75" stroke-linecap="round" stroke-linejoin="round"/>
<path d="M87.4188 95.7172L91.7468 104.734C92.1906 105.674 92.4215 106.7 92.423 107.739V110.565L94.8124 116.576C94.9352 116.889 95.0356 117.21 95.113 117.538C95.8794 120.739 99.5312 137.93 90.6047 141.432C82.7301 144.528 71.6396 137.059 67.567 133.993C66.5514 133.229 65.694 132.274 65.0424 131.183L62.3373 126.795C61.1889 127.138 59.9615 127.109 58.8305 126.712C57.6995 126.315 56.723 125.571 56.0407 124.586C53.6213 121.114 50.8261 119.236 54.1472 116.11C57.4684 112.984 60.534 117.988 60.534 117.988L60.0832 109.167L63.9303 102.405L64.1257 98.1517C64.1257 98.1517 76.719 96.7542 85.1646 92.1406L87.4188 95.7172Z" fill="white" stroke="#263238" stroke-width="0.75" stroke-linecap="round" stroke-linejoin="round"/>
<path d="M87.4188 95.7172L91.7468 104.734C92.1906 105.674 92.4215 106.7 92.423 107.739V110.565L94.8124 116.576C94.9352 116.889 95.0356 117.21 95.113 117.538C95.8794 120.739 99.5312 137.93 90.6047 141.432C82.7301 144.528 71.6396 137.059 67.567 133.993C66.5514 133.229 65.694 132.274 65.0424 131.183L62.3373 126.795C61.1889 127.138 59.9615 127.109 58.8305 126.712C57.6995 126.315 56.723 125.571 56.0407 124.586C53.6213 121.114 50.8261 119.236 54.1472 116.11C57.4684 112.984 60.534 117.988 60.534 117.988L60.0832 109.167L63.9303 102.405L64.1257 98.1517C64.1257 98.1517 76.719 96.7542 85.1646 92.1406L87.4188 95.7172Z" fill="#858585" stroke="#263238" stroke-linecap="round" stroke-linejoin="round"/>
<path d="M79.7549 126.508C82.1894 131.212 85.4955 130.43 87.5693 129.258" stroke="#263238" stroke-width="0.75" stroke-linecap="round" stroke-linejoin="round"/>
<path d="M79.7095 115.823C80.0401 116.89 80.7163 117.626 81.2123 117.476C81.7082 117.326 81.8734 116.319 81.5428 115.252C81.2122 114.185 80.536 113.434 80.04 113.599C79.5441 113.764 79.3789 114.756 79.7095 115.823Z" fill="#263238"/>
<path d="M89.7475 112.713C90.0781 113.795 90.7544 114.531 91.2503 114.366C91.7462 114.2 91.9115 113.209 91.5809 112.142C91.2503 111.075 90.559 110.338 90.0781 110.504C89.5973 110.669 89.4169 111.646 89.7475 112.713Z" fill="#263238"/>
<path d="M90.4697 105.77C90.0717 105.658 89.6549 105.63 89.2454 105.687C88.8359 105.744 88.4426 105.884 88.09 106.1C87.7374 106.316 87.4331 106.602 87.1961 106.941C86.9591 107.28 86.7946 107.664 86.7128 108.069" stroke="#263238" stroke-width="0.75" stroke-linecap="round" stroke-linejoin="round"/>
<path d="M81.8281 109.872C81.8281 109.872 78.3267 106.191 75.9673 110.098" stroke="#263238" stroke-width="0.75" stroke-linecap="round" stroke-linejoin="round"/>
<path d="M86.637 113.66C86.9517 115.096 87.6275 116.428 88.6005 117.53C89.5734 118.631 90.8114 119.467 92.1973 119.957L89.4622 124.3" stroke="#263238" stroke-width="0.75" stroke-linecap="round" stroke-linejoin="round"/>
<path d="M69.1894 285.953L69.9558 290.597C70.0659 291.363 69.8758 292.143 69.425 292.773C68.9742 293.403 68.2976 293.835 67.5363 293.978L19.3421 301.883C18.5753 301.993 17.7956 301.803 17.1656 301.352C16.5357 300.901 16.1041 300.224 15.9609 299.463L15.2095 294.82L69.1894 285.953Z" fill="#FF993A" stroke="#263238" stroke-width="0.75" stroke-linecap="round" stroke-linejoin="round"/>
<path d="M13.0508 265.559L61.7951 257.56C63.2447 257.322 64.6128 258.304 64.8507 259.754L69.6816 289.19C69.9195 290.64 68.9372 292.008 67.4876 292.246L18.7433 300.245C17.2936 300.483 15.9256 299.501 15.6877 298.051L10.8567 268.615C10.6188 267.165 11.6011 265.797 13.0508 265.559Z" fill="#FF993A"/>
<mask id="mask2_209_3740" style="mask-type:luminance" maskUnits="userSpaceOnUse" x="10" y="257" width="60" height="44">
<path d="M13.0527 265.559L61.797 257.56C63.2467 257.322 64.6147 258.304 64.8526 259.754L69.6836 289.19C69.9215 290.64 68.9392 292.008 67.4895 292.246L18.7452 300.245C17.2956 300.483 15.9276 299.501 15.6897 298.051L10.8587 268.615C10.6208 267.165 11.6031 265.797 13.0527 265.559Z" fill="white"/>
</mask>
<g mask="url(#mask2_209_3740)">
<path opacity="0.5" d="M13.0527 265.559L61.797 257.56C63.2467 257.322 64.6147 258.304 64.8526 259.754L69.6836 289.19C69.9215 290.64 68.9392 292.008 67.4895 292.246L18.7452 300.245C17.2956 300.483 15.9276 299.501 15.6897 298.051L10.8587 268.615C10.6208 267.165 11.6031 265.797 13.0527 265.559Z" fill="white"/>
</g>
<path d="M13.0508 265.559L61.7951 257.56C63.2447 257.322 64.6128 258.304 64.8507 259.754L69.6816 289.19C69.9195 290.64 68.9372 292.008 67.4876 292.246L18.7433 300.245C17.2936 300.483 15.9256 299.501 15.6877 298.051L10.8567 268.615C10.6188 267.165 11.6011 265.797 13.0508 265.559Z" stroke="#263238" stroke-linecap="round" stroke-linejoin="round"/>
<path d="M31.8615 271.045L34.5215 280.062L43.5381 286.508C44.8144 290.455 46.3198 294.324 48.0465 298.095C48.1614 298.305 48.221 298.541 48.2197 298.781C48.2184 299.02 48.1562 299.255 48.039 299.464C47.9218 299.673 47.7534 299.849 47.5497 299.974C47.3459 300.1 47.1136 300.172 46.8743 300.184C45.627 300.184 44.1693 299.598 43.3728 297.178C43.3728 297.178 43.0272 301.927 40.0968 299.027C40.0968 299.027 38.3085 303.625 35.5133 300.003C35.5133 300.003 29.0363 300.965 27.9994 296.292C26.9625 291.618 25.4296 283.383 25.4296 283.383L21.312 273.72L31.8615 271.045Z" fill="#858585" stroke="#263238" stroke-linecap="round" stroke-linejoin="round"/>
<path d="M43.4326 295.331L42.4107 288.373" stroke="#263238" stroke-width="0.75" stroke-linecap="round" stroke-linejoin="round"/>
<path d="M41.8242 295.781C41.8242 295.781 41.1179 298.081 39.525 297.705C37.932 297.329 35.6628 299.102 30.7037 297.014" stroke="#263238" stroke-width="0.75" stroke-linecap="round" stroke-linejoin="round"/>
<path d="M27.3226 158.082C27.3226 158.082 4.7809 220.718 5.20168 229.87C5.62246 239.022 21.6571 278.83 21.6571 278.83L34.04 274.893L25.7747 228.202L33.1834 195.757C33.1834 195.757 34.8666 171.968 27.3226 158.082Z" fill="#FF993A" stroke="#263238" stroke-linecap="round" stroke-linejoin="round"/>
<path d="M22.9951 227.164C22.1637 226.528 21.2005 226.085 20.176 225.869C19.1515 225.654 18.0916 225.67 17.0742 225.917" stroke="#263238" stroke-width="0.75" stroke-linecap="round" stroke-linejoin="round"/>
<path d="M37.6466 275.885C38.0954 275.289 38.4315 274.617 38.6385 273.901C39.505 273.884 40.3456 274.197 40.9911 274.775C41.6365 275.353 42.0388 276.155 42.1169 277.018C42.195 277.881 41.9432 278.742 41.4121 279.427C40.8809 280.111 40.11 280.569 39.2546 280.709C38.3561 280.856 37.4356 280.642 36.6948 280.113C35.954 279.583 35.4533 278.781 35.3023 277.883C36.2697 277.473 37.0879 276.775 37.6466 275.885Z" fill="white"/>
</svg>
