<svg width="545" height="713" viewBox="0 0 545 713" fill="none" xmlns="http://www.w3.org/2000/svg">
<circle cx="272.5" cy="272.5" r="272.5" fill="#FF993A" fill-opacity="0.35"/>
<path d="M219.051 155.586C222.688 153.117 225.671 149.813 227.746 145.954C229.822 142.095 230.928 137.795 230.971 133.42C230.678 126.026 227.514 119.031 222.142 113.902C216.769 108.773 209.606 105.908 202.153 105.908C194.701 105.908 187.538 108.773 182.165 113.902C176.793 119.031 173.628 126.026 173.335 133.42C173.325 138.691 174.878 143.849 177.8 148.249C163.871 153.392 154.026 165.783 154.026 180.279C154.026 194.266 163.179 206.28 176.349 211.733C173.382 213.761 170.954 216.471 169.271 219.632C167.588 222.793 166.7 226.312 166.683 229.887C167.007 235.958 169.664 241.673 174.105 245.856C178.547 250.039 184.435 252.371 190.557 252.371C196.679 252.371 202.567 250.039 207.009 245.856C211.45 241.673 214.107 235.958 214.431 229.887C214.414 226.545 213.636 223.25 212.156 220.248C210.675 217.246 208.53 214.616 205.881 212.553C220.19 207.566 230.436 195.02 230.436 180.279C230.406 175.598 229.376 170.976 227.414 166.719C225.451 162.462 222.601 158.668 219.051 155.586Z" fill="#263238"/>
<path d="M190.613 253.518C184.142 253.631 177.888 251.203 173.21 246.762C168.533 242.32 165.81 236.224 165.634 229.8C165.641 226.367 166.418 222.978 167.909 219.88C169.399 216.782 171.565 214.053 174.251 211.89C168.04 209.16 162.742 204.728 158.978 199.113C155.214 193.499 153.14 186.936 153 180.192C153 166.028 162.085 153.371 176.238 147.608C173.614 143.302 172.225 138.366 172.22 133.333C172.518 125.648 175.803 118.377 181.384 113.045C186.965 107.713 194.409 104.734 202.154 104.734C209.899 104.734 217.342 107.713 222.924 113.045C228.505 118.377 231.789 125.648 232.088 133.333C232.054 137.668 231.018 141.936 229.059 145.81C227.101 149.684 224.273 153.06 220.793 155.677C224.164 158.826 226.855 162.623 228.7 166.838C230.546 171.053 231.509 175.596 231.53 180.192C231.53 194.268 222.199 207.191 208.114 212.843C210.468 215.008 212.349 217.63 213.639 220.547C214.93 223.464 215.602 226.614 215.614 229.8C215.439 236.228 212.713 242.327 208.031 246.77C203.348 251.212 197.088 253.637 190.613 253.518ZM202.154 106.911C194.948 106.769 187.98 109.47 182.778 114.424C177.576 119.378 174.565 126.178 174.407 133.333C174.444 138.404 175.998 143.35 178.872 147.542L179.653 148.694L178.336 149.204C164.34 154.369 155.277 166.538 155.277 180.237C155.45 186.861 157.595 193.287 161.44 198.703C165.285 204.119 170.66 208.283 176.885 210.671L178.738 211.447L177.108 212.599C174.282 214.518 171.969 217.091 170.366 220.095C168.764 223.099 167.922 226.445 167.911 229.844C168.227 235.626 170.763 241.067 174.996 245.049C179.229 249.031 184.838 251.25 190.669 251.25C196.5 251.25 202.109 249.031 206.342 245.049C210.575 241.067 213.111 235.626 213.427 229.844C213.407 226.669 212.667 223.539 211.26 220.687C209.853 217.836 207.816 215.336 205.301 213.375L203.739 212.134L205.636 211.469C220.034 206.437 229.342 194.179 229.342 180.237C229.312 175.726 228.317 171.273 226.424 167.173C224.531 163.073 221.782 159.419 218.36 156.452L217.311 155.521L218.471 154.723C221.959 152.334 224.817 149.148 226.806 145.434C228.795 141.719 229.856 137.584 229.9 133.377C229.754 126.215 226.749 119.403 221.546 114.44C216.342 109.477 209.367 106.769 202.154 106.911Z" fill="#263238"/>
<path d="M213.338 534.184L210.28 669.397C210.28 669.397 201.15 681.921 197.244 688.837C193.337 695.753 191.574 703.533 192.891 707.833C194.208 712.133 204.632 713.463 210.749 709.562C216.865 705.661 222.044 683.65 223.361 678.906C224.678 674.163 226.397 662.924 226.397 662.924L249.032 539.371L213.338 534.184Z" fill="white"/>
<path d="M201.997 712.998C200.021 713.016 198.058 712.693 196.193 712.044C195.19 711.801 194.261 711.322 193.483 710.647C192.706 709.972 192.104 709.12 191.729 708.165C190.3 703.466 192.086 695.486 196.193 688.216C199.809 681.832 207.712 670.904 209.118 668.954L212.176 532.854L250.303 538.373L227.467 663.057C227.467 663.478 225.726 674.362 224.409 679.128C224.275 679.593 224.118 680.214 223.918 680.968C220.792 692.959 216.506 707.124 211.328 710.426C208.526 712.145 205.29 713.036 201.997 712.998ZM214.408 535.469L211.395 669.774L211.194 670.04C211.194 670.173 202.042 682.608 198.202 689.369C194.363 696.129 192.711 703.444 193.961 707.523C194.241 708.13 194.655 708.667 195.173 709.093C195.691 709.519 196.299 709.823 196.952 709.983C199.12 710.685 201.413 710.928 203.682 710.695C205.95 710.462 208.145 709.759 210.122 708.631C215.234 705.372 220.145 686.642 221.752 680.48C221.953 679.704 222.132 679.083 222.266 678.618C223.538 673.963 225.257 662.858 225.279 662.747L247.602 540.301L214.408 535.469Z" fill="#263238"/>
<path d="M212.467 693.537C200.703 695.754 199.073 688.528 199.073 685.868C198.426 686.91 197.823 687.907 197.332 688.794C193.404 695.709 191.662 703.49 192.979 707.79C194.296 712.09 204.721 713.42 210.837 709.519C216.954 705.618 222.132 683.607 223.449 678.863C223.338 678.908 219.052 692.429 212.467 693.537Z" fill="#263238"/>
<path d="M201.997 712.999C200.021 713.017 198.058 712.695 196.193 712.046C195.19 711.803 194.261 711.323 193.483 710.648C192.706 709.973 192.104 709.122 191.729 708.167C190.3 703.468 192.086 695.488 196.193 688.217C196.707 687.331 197.309 686.311 197.979 685.269L199.809 682.321L200.033 685.779C200.066 686.808 200.315 687.819 200.765 688.746C201.215 689.674 201.855 690.498 202.644 691.165C204.72 692.783 207.935 693.205 212.198 692.429C216.953 691.564 221.127 682.077 222.199 678.486L224.431 679.129C224.297 679.595 224.141 680.215 223.94 680.969C220.815 692.961 216.529 707.125 211.35 710.428C208.542 712.15 205.297 713.042 201.997 712.999ZM198.47 688.927L198.202 689.37C194.474 696.02 192.711 703.445 193.961 707.524C194.241 708.131 194.655 708.668 195.173 709.094C195.691 709.52 196.299 709.825 196.952 709.984C199.12 710.687 201.413 710.929 203.682 710.696C205.95 710.464 208.145 709.76 210.122 708.632C213.538 706.416 216.819 697.35 219.185 689.725C217.712 692.129 215.387 693.9 212.667 694.69C207.734 695.576 203.939 695 201.35 692.983C200.011 691.939 199.01 690.529 198.47 688.927Z" fill="#263238"/>
<path d="M314.078 684.781L298.452 541.787L331.601 540.834L330.529 674.54C330.529 674.54 343.722 685.402 348.231 688.283C352.74 691.165 363.366 700.43 363.366 702.979C363.366 705.528 355.307 706.814 345.976 705.196C336.646 703.578 321.154 698.191 317.27 695.753C313.386 693.315 314.39 690.854 314.078 684.781Z" fill="white"/>
<path d="M353.856 707.035C351.14 707.017 348.43 706.779 345.753 706.326C336.422 704.73 320.707 699.233 316.734 696.55C313.185 694.201 313.162 691.896 313.118 688.083C313.118 687.13 313.118 686.088 313.118 684.869L297.313 540.789L332.828 539.77L331.757 674.118C333.989 675.958 344.994 684.913 348.945 687.418C352.293 689.635 364.571 699.454 364.571 703.045C364.565 703.439 364.467 703.826 364.285 704.176C364.103 704.526 363.842 704.829 363.522 705.062C361.914 706.326 358.231 707.035 353.856 707.035ZM299.635 542.806L315.261 684.669C315.261 685.933 315.261 687.041 315.261 688.017C315.261 691.607 315.261 692.96 317.895 694.666C321.667 697.171 337.181 702.558 346.11 704.087C353.722 705.395 360.24 704.686 361.937 703.267C362.093 703.134 362.182 703.023 362.182 702.934C362.026 701.072 352.472 692.317 347.561 689.169C343.097 686.288 330.306 675.87 329.703 675.36L329.301 675.027L330.351 541.92L299.635 542.806Z" fill="#263238"/>
<path d="M322.762 685.735C319.495 683.337 316.358 680.77 313.364 678.043L314.079 684.693C314.391 690.766 313.431 693.005 317.293 695.554C321.155 698.103 336.602 703.534 345.933 705.13C355.263 706.726 363.322 705.462 363.322 702.913C363.322 700.364 352.696 691.099 348.187 688.217L337.897 693.648C332.577 691.564 327.502 688.911 322.762 685.735Z" fill="#263238"/>
<path d="M353.857 707.036C351.141 707.017 348.431 706.78 345.754 706.326C336.423 704.73 320.708 699.233 316.735 696.551C313.186 694.201 313.163 691.896 313.119 688.084C313.119 687.13 313.119 686.066 313.119 684.825L312.092 675.271L314.324 677.222C317.281 679.927 320.389 682.466 323.632 684.825C328.144 687.895 332.979 690.467 338.053 692.495L348.477 686.997L349.013 687.352C352.361 689.569 364.639 699.388 364.639 702.979C364.633 703.373 364.535 703.76 364.353 704.11C364.171 704.46 363.909 704.763 363.589 704.996C361.915 706.326 358.232 707.036 353.857 707.036ZM314.771 680.769L315.195 684.648C315.195 685.978 315.195 687.086 315.195 688.061C315.195 691.652 315.195 693.004 317.829 694.711C321.601 697.216 337.115 702.602 346.044 704.132C353.656 705.44 360.174 704.73 361.871 703.312C362.027 703.179 362.116 703.068 362.116 702.979C361.982 701.184 353.187 692.96 348.031 689.569L337.874 694.933L337.405 694.755C331.994 692.621 326.836 689.901 322.025 686.643C319.949 685.091 317.494 683.14 314.771 680.769Z" fill="#263238"/>
<path d="M246.977 309.088C246.977 309.088 219.431 348.766 214.029 367.008C208.627 385.251 212.399 540.724 212.399 540.724C212.399 540.724 259.276 548.239 281.599 547.707C298.77 546.932 315.89 545.297 332.895 542.808C332.895 542.808 337.204 505.813 338.297 482.76C339.391 459.707 353.41 398.529 346.4 366.41C339.391 334.291 319.614 305.963 319.614 305.963L246.977 309.088Z" fill="#263238"/>
<path d="M279.188 548.837C256.397 548.837 212.69 541.899 212.221 541.832L211.306 541.677V540.768C211.15 534.406 207.601 384.874 212.98 366.698C218.36 348.521 244.946 310.085 246.062 308.467L246.375 308.002L320.217 304.898L320.552 305.408C320.753 305.674 340.441 334.224 347.339 366.232C352.272 388.753 347.071 424.418 342.874 453.057C341.088 465.293 339.548 475.866 339.236 482.87C338.164 505.701 333.856 542.719 333.811 543.007V543.849L332.963 543.982C332.673 543.982 303.475 548.282 281.622 548.814L279.188 548.837ZM213.494 539.771C220.19 540.812 261.442 547.063 281.488 546.598C298.328 545.866 315.12 544.298 331.802 541.899C332.472 536.246 336.133 503.596 337.115 482.782C337.45 475.666 338.99 465.049 340.776 452.746C344.705 425.77 350.062 388.841 345.24 366.698C338.856 337.438 321.69 311.105 319.034 307.159L247.602 310.174C244.522 314.607 220.101 350.516 215.123 367.318C210.123 384.453 213.204 526.87 213.494 539.771Z" fill="#263238"/>
<path d="M401.895 142.908C401.895 142.908 399.775 236.206 399.283 241.57C398.792 246.934 324.526 236.206 324.526 236.206C324.526 236.206 324.526 269.455 323.544 278.188C322.562 286.922 321.579 293.815 321.579 297.229C321.703 300.303 321.027 303.357 319.615 306.095C318.142 309.021 312.249 314.386 288.632 318.309C265.015 322.232 251.264 314.873 249.3 312.435C247.335 309.997 245.84 299.202 245.84 299.202L228.25 257.086L205.302 300.532L198.606 338.369L193.248 380.596C193.95 382.521 194.848 384.37 195.927 386.115C198.159 389.728 205.124 397.331 205.503 398.661C205.84 401.121 205.967 403.605 205.883 406.087C205.883 408.17 205.883 419.386 205.503 421.115C205.124 422.844 203.405 419.386 203.405 419.386C203.003 420.824 202.353 422.181 201.485 423.399C200.347 424.729 199.565 421.492 199.565 421.492C198.427 425.105 197.668 424.352 197.088 424.729C196.507 425.105 195.547 417.502 195.547 417.502C195.547 417.502 195.168 419.586 194.788 421.492C194.741 421.998 194.544 422.478 194.222 422.872C193.901 423.267 193.468 423.558 192.98 423.709C191.016 422.157 191.797 408.547 191.797 408.547C191.797 408.547 186.306 403.471 184.342 401.543C182.377 399.614 180.033 389.462 180.033 389.462C180.033 389.462 176.908 304.632 176.908 302.682C176.908 300.731 205.927 218.251 205.927 215.525C205.927 212.798 245.125 198.39 245.125 198.39L290.975 188.659C290.975 188.659 319.302 186.177 322.003 187.529C324.704 188.881 374.796 208.853 374.796 208.853L389.506 135.483C389.506 135.483 390.533 121.385 391.538 119.966C393.844 116.483 395.775 112.768 397.297 108.883C397.632 106.866 398.301 101.835 400.333 102.5C402.364 103.165 403.726 106.534 403.368 109.149C403.011 111.765 399.998 116.531 399.998 117.883C399.998 119.235 418.949 113.849 417.588 122.316C416.226 130.784 415.222 137.101 413.525 138.431C411.829 139.761 401.895 142.908 401.895 142.908Z" fill="white"/>
<path d="M197.175 426.014L196.528 425.748C196.148 425.571 195.769 425.394 195.3 423.177C195.06 423.582 194.737 423.933 194.353 424.208C193.968 424.483 193.531 424.675 193.068 424.773L192.554 424.884L192.13 424.551C190.054 422.889 190.277 413.468 190.523 409.035C189.228 407.838 185.099 404.025 183.424 402.385C181.348 400.324 179.228 391.524 178.826 389.795C178.67 386.115 175.656 304.699 175.656 302.748C175.656 301.817 178.514 293.283 188.402 264.423C195.545 243.498 204.452 217.453 204.653 215.547C204.653 214.727 204.653 212.089 244.565 197.415L290.572 187.64C297.425 187.041 319.591 185.224 322.336 186.598C324.747 187.795 366.044 204.331 373.812 207.39L388.254 135.328C388.634 130.074 389.437 120.831 390.487 119.435C392.686 116.097 394.541 112.547 396.022 108.839V108.418C396.491 105.581 397.072 102.721 398.634 101.768C398.907 101.608 399.212 101.507 399.528 101.472C399.843 101.438 400.163 101.471 400.465 101.569C403.166 102.477 404.639 106.467 404.259 109.482C403.788 111.475 403.037 113.393 402.027 115.179C401.715 115.799 401.358 116.575 401.09 117.174L403.322 116.952C407.786 116.486 414.483 115.755 417.273 118.57C417.779 119.104 418.144 119.754 418.335 120.461C418.525 121.169 418.537 121.913 418.367 122.626V122.87C416.782 132.712 415.845 137.921 413.903 139.428C410.337 141.265 406.599 142.75 402.742 143.862C402.518 153.548 400.509 236.671 400.13 241.814C400.107 242.065 400.03 242.308 399.902 242.526C399.775 242.745 399.601 242.933 399.393 243.077C394.214 247.156 339.48 239.641 325.395 237.624C325.395 243.897 325.395 270.585 324.412 278.454C324.122 281.003 323.854 283.375 323.586 285.547C322.961 290.845 322.448 295.012 322.448 297.362C322.561 300.583 321.846 303.779 320.372 306.65C318.475 310.418 311.443 315.671 288.585 319.462C265.057 323.363 250.637 316.137 248.182 313.211C246.15 310.684 244.766 301.263 244.521 299.623L227.913 259.901L206.126 301.019L199.43 338.702L194.095 380.618C194.779 382.382 195.624 384.081 196.617 385.694C198.331 388.27 200.218 390.729 202.264 393.053C203.842 394.677 205.194 396.504 206.283 398.484C206.675 401.043 206.817 403.634 206.707 406.22C206.707 412.338 206.707 419.963 206.305 421.492C206.265 421.824 206.117 422.134 205.883 422.374C205.649 422.614 205.343 422.771 205.01 422.822C204.765 422.822 204.184 422.822 203.381 422.002C203.035 422.797 202.584 423.542 202.041 424.219C201.843 424.492 201.568 424.701 201.25 424.82C200.932 424.938 200.586 424.96 200.255 424.884C199.905 424.787 199.588 424.595 199.34 424.33C199.153 424.7 198.882 425.022 198.549 425.272C198.217 425.522 197.83 425.692 197.421 425.77L197.175 426.014ZM195.724 410.188L196.639 417.369C196.907 419.475 197.287 421.803 197.599 423.221C197.985 422.575 198.285 421.882 198.492 421.16L199.697 417.325L200.635 421.226C200.712 421.559 200.817 421.886 200.947 422.202C201.523 421.224 201.98 420.182 202.309 419.098L203.09 416.372L204.385 418.899L204.541 419.231C204.653 417.392 204.742 413.668 204.742 406.087C204.813 403.71 204.701 401.331 204.407 398.971C203.298 397.362 202.098 395.815 200.814 394.339C198.692 391.911 196.73 389.349 194.943 386.669C193.856 384.874 192.959 382.973 192.264 380.995V380.773L197.666 338.325L204.497 300.088L228.404 254.648L246.976 298.98C247.512 303.014 248.874 310.063 250.168 311.615C252.021 313.831 265.794 320.836 288.451 317.068C312.403 313.122 317.47 307.647 318.609 305.475C319.941 302.91 320.58 300.046 320.461 297.163C320.461 294.68 320.975 290.513 321.622 285.082C321.868 282.865 322.158 280.538 322.448 278.011C323.408 269.388 323.408 236.472 323.408 236.139V234.854L324.703 235.053C358.387 239.907 394.795 243.521 398.188 241.215C398.679 234.211 400.755 143.684 400.777 142.82V142.022L401.558 141.778C405.392 140.682 409.126 139.266 412.72 137.544C414.059 136.48 415.22 129.298 416.336 122.36V122.117C416.448 121.734 416.46 121.33 416.37 120.942C416.28 120.554 416.092 120.195 415.822 119.9C413.88 117.861 407.273 118.592 403.724 118.969C400.666 119.302 399.75 119.368 399.148 118.814L398.768 118.481V117.883C398.998 116.52 399.483 115.212 400.197 114.026C401.057 112.443 401.717 110.76 402.161 109.016C402.451 106.8 401.291 103.94 399.929 103.475C399.683 103.608 399.081 104.45 398.411 108.573V108.994C396.866 113.06 394.867 116.941 392.451 120.565C391.461 125.469 390.857 130.442 390.643 135.438L375.598 210.316L374.348 209.806C372.294 209.008 324.167 189.856 321.466 188.438C319.792 187.706 304.679 188.438 291.018 189.701L245.302 199.41C227.779 205.86 208.693 213.707 206.975 215.724C206.55 218.207 201.662 232.748 190.612 265C184.518 282.843 178.201 301.285 178 302.682C178 304.477 181.103 388.465 181.125 389.307C181.996 392.898 183.849 399.393 185.121 400.634C187.041 402.54 192.487 407.572 192.532 407.616L192.911 407.971V408.481C192.525 412.997 192.675 417.543 193.358 422.024C193.519 421.766 193.633 421.48 193.693 421.182C194.072 419.298 194.452 417.214 194.452 417.214L195.724 410.188Z" fill="#263238"/>
<path d="M200.658 421.536H198.426C198.426 421.536 198.738 413.512 198.738 411.805V406.396H200.971V411.805C200.971 413.467 200.68 421.203 200.658 421.536Z" fill="#263238"/>
<path d="M204.195 404.844L201.963 404.895L202.297 419.41L204.529 419.359L204.195 404.844Z" fill="#263238"/>
<path d="M196.639 407.75H194.407V417.503H196.639V407.75Z" fill="#263238"/>
<path d="M378.031 192.583L374.75 208.919C374.75 208.919 324.659 188.97 321.958 187.596C319.257 186.221 290.929 188.726 290.929 188.726L245.079 198.457C245.079 198.457 205.881 212.865 205.881 215.591C205.881 218.318 176.862 300.798 176.862 302.749C176.862 303.414 177.219 313.388 177.688 326.355L199.386 333.825L205.279 300.576L228.248 257.197L245.838 299.313C245.838 299.313 247.312 310.041 249.276 312.479C251.24 314.918 264.902 322.255 288.608 318.354C312.314 314.452 318.118 309.066 319.591 306.14C321.003 303.401 321.68 300.348 321.556 297.274C321.556 293.86 322.538 287.033 323.52 278.233C324.502 269.433 324.502 236.25 324.502 236.25C324.502 236.25 398.769 247.001 399.26 241.614C399.461 239.398 399.974 221.044 400.488 200.807L378.031 192.583Z" fill="white"/>
<path d="M200.279 335.198L176.639 327.064V326.31C176.081 310.794 175.813 303.257 175.813 302.659C175.813 301.728 178.671 293.194 188.56 264.333C195.703 243.409 204.609 217.363 204.81 215.457C204.81 214.637 204.81 211.999 244.723 197.325L290.729 187.55C297.582 186.951 319.748 185.134 322.494 186.508C324.904 187.705 366.201 204.241 373.969 207.3L377.228 191.008L401.671 200.007V200.805C401.024 225.942 400.622 239.707 400.421 241.68C400.398 241.931 400.321 242.174 400.194 242.392C400.066 242.611 399.892 242.799 399.684 242.943C394.506 247.022 339.771 239.507 325.686 237.49C325.686 243.763 325.686 270.451 324.704 278.32C324.413 280.869 324.146 283.241 323.878 285.413C323.253 290.711 322.739 294.878 322.739 297.228C322.852 300.448 322.137 303.645 320.663 306.515C318.766 310.284 311.734 315.537 288.876 319.328C265.348 323.229 250.928 316.003 248.473 313.077C246.441 310.55 245.057 301.129 244.812 299.489L228.204 259.767L206.417 300.885L200.279 335.198ZM178.872 325.578L198.627 332.383L204.408 300.11L228.405 254.647L246.977 298.979C247.513 303.013 248.875 310.062 250.169 311.614C252.022 313.83 265.795 320.835 288.452 317.067C312.404 313.121 317.471 307.624 318.61 305.474C319.942 302.909 320.581 300.045 320.462 297.161C320.462 294.679 320.976 290.512 321.623 285.081C321.869 282.864 322.159 280.537 322.449 278.01C323.409 269.387 323.409 236.471 323.409 236.138V234.852L324.704 235.052C358.388 239.906 394.796 243.519 398.189 241.214C398.3 239.396 398.613 230.84 399.372 201.47L378.88 193.912L375.599 210.315L374.348 209.805C372.295 209.007 324.168 189.855 321.467 188.437C319.815 187.705 304.68 188.437 291.019 189.7L245.303 199.409C227.78 205.859 208.694 213.706 206.975 215.723C206.551 218.206 201.663 232.724 190.613 264.998C184.519 282.842 178.202 301.284 178.001 302.681C178.001 303.213 178.269 310.882 178.872 325.578Z" fill="#263238"/>
<path d="M407.787 117.35C407.787 117.35 407.408 122.803 408.725 123.18C411.688 123.604 414.71 123.323 417.542 122.36C418.315 121.759 418.845 120.904 419.038 119.948C419.23 118.993 419.072 118 418.591 117.151C417.832 115.466 409.684 116.397 407.787 117.35Z" fill="white"/>
<path d="M411.203 124.467C410.274 124.504 409.345 124.429 408.435 124.245C406.961 123.824 406.381 121.496 406.671 117.263V116.642L407.251 116.354C410.734 115.147 414.471 114.857 418.1 115.511C418.415 115.594 418.709 115.743 418.959 115.95C419.21 116.157 419.412 116.416 419.551 116.708C420.172 117.805 420.362 119.09 420.086 120.318C419.81 121.545 419.087 122.628 418.055 123.358C415.877 124.21 413.54 124.588 411.203 124.467ZM409.216 122.25C411.822 122.533 414.46 122.276 416.962 121.496C418.301 120.72 418.033 118.748 417.564 117.706C416.738 117.041 411.158 117.484 408.859 118.216C408.756 119.541 408.877 120.875 409.216 122.161V122.25Z" fill="#263238"/>
<path d="M418.77 122.604C419.25 122.971 419.602 123.479 419.774 124.056C419.946 124.633 419.931 125.25 419.73 125.818C419.543 126.717 419.105 127.545 418.465 128.208C417.825 128.871 417.01 129.341 416.114 129.564C414.596 129.941 408.725 129.564 407.988 128.256C407.252 126.948 406.85 123.357 408.725 123.18C410.6 123.003 418.77 122.604 418.77 122.604Z" fill="white"/>
<path d="M414.261 130.805C411.716 130.805 407.921 130.384 407.006 128.81C406.574 127.986 406.321 127.08 406.264 126.152C406.206 125.225 406.345 124.295 406.671 123.424C406.857 123.056 407.132 122.741 407.471 122.505C407.809 122.269 408.202 122.12 408.613 122.072C410.533 121.894 418.39 121.518 418.725 121.518H419.06L419.373 121.695C420.051 122.19 420.554 122.886 420.81 123.682C421.067 124.478 421.064 125.334 420.801 126.128C420.567 127.23 420.024 128.244 419.234 129.052C418.444 129.86 417.439 130.43 416.337 130.694C415.65 130.797 414.955 130.834 414.261 130.805ZM418.368 123.734C416.627 123.734 410.444 124.133 408.837 124.288C408.837 124.288 408.837 124.288 408.658 124.443C408.355 125.529 408.458 126.686 408.948 127.702C411.149 128.514 413.515 128.788 415.846 128.5C416.545 128.323 417.179 127.951 417.673 127.429C418.167 126.907 418.501 126.256 418.636 125.552C418.741 125.25 418.772 124.927 418.725 124.611C418.679 124.294 418.556 123.994 418.368 123.734Z" fill="#263238"/>
<path d="M417.833 129.387C418.352 130.438 418.547 131.618 418.391 132.778C418.011 134.285 414.975 135.593 412.899 135.394C410.823 135.194 407.229 134.463 407.229 133.332C407.229 132.202 409.462 129.387 409.462 129.387H417.833Z" fill="white"/>
<path d="M413.257 136.524H412.744C410.712 136.347 406.047 135.682 406.047 133.355C406.48 131.628 407.339 130.036 408.547 128.722L408.882 128.301H418.458L418.748 128.921C419.416 130.195 419.651 131.649 419.418 133.066C418.971 134.951 415.824 136.524 413.257 136.524ZM408.324 133.155C409.777 133.826 411.345 134.218 412.944 134.308C413.753 134.354 414.561 134.217 415.308 133.906C416.055 133.594 416.72 133.118 417.253 132.512C417.351 131.83 417.266 131.135 417.007 130.495H409.976C409.34 131.314 408.808 132.208 408.391 133.155H408.324Z" fill="#263238"/>
<path d="M415.735 135.394C415.735 135.394 417.632 134.84 417.253 136.724C416.873 138.608 415.02 140.869 413.279 140.869C411.538 140.869 407.23 139.162 407.609 137.477C407.775 136.546 408.237 135.691 408.926 135.039L415.735 135.394Z" fill="white"/>
<path d="M413.256 141.977C410.919 141.815 408.715 140.842 407.028 139.228C406.782 138.964 406.605 138.644 406.512 138.296C406.419 137.949 406.412 137.584 406.492 137.233C406.714 136.048 407.317 134.967 408.211 134.152L408.546 133.908L415.622 134.285C416.003 134.176 416.404 134.16 416.792 134.237C417.181 134.314 417.545 134.483 417.854 134.728C418.141 135.013 418.345 135.369 418.443 135.76C418.541 136.15 418.531 136.56 418.412 136.945C417.877 139.383 415.6 141.977 413.256 141.977ZM409.349 136.169C409.012 136.633 408.777 137.161 408.657 137.721C409.914 138.897 411.535 139.616 413.256 139.76C414.283 139.76 415.845 137.987 416.135 136.502H416.002H415.823H415.644L409.349 136.169Z" fill="#263238"/>
<path d="M396.871 138.12L395.979 136.081C395.979 136.081 400.264 134.175 401.224 131.116C401.843 128.772 401.965 126.327 401.581 123.934L403.814 123.535C404.283 126.28 404.146 129.094 403.412 131.781C402.095 135.793 397.095 138.01 396.871 138.12Z" fill="#263238"/>
<path d="M316.286 211.901L314.202 212.695L323.458 236.638L325.542 235.844L316.286 211.901Z" fill="#263238"/>
<path d="M239.034 240.29L227.371 256.479L229.187 257.768L240.85 241.579L239.034 240.29Z" fill="#263238"/>
<path d="M243.896 160.354L249.165 183.362L287.671 175.981L281.108 163.39L243.896 160.354Z" fill="white"/>
<path d="M248.294 184.669L242.468 159.111L281.8 162.325L289.345 176.8L248.294 184.669ZM245.325 161.55L250.013 182.053L286.019 175.182L280.438 164.431L245.325 161.55Z" fill="#263238"/>
<path d="M264.479 193.357L285.908 265.508L274.524 272.446L260.104 194.665L264.479 193.357Z" fill="#FF993A"/>
<path d="M273.742 274.243L258.809 193.891L265.215 191.984L287.225 265.997L273.742 274.243ZM261.465 195.442L275.416 270.652L284.68 265L263.697 194.799L261.465 195.442Z" fill="#263238"/>
<path d="M248.271 195.53L253.964 293.304L281.108 289.824L264.478 193.357L248.271 195.53Z" fill="#FF993A"/>
<path d="M252.915 294.548L247.111 194.556L265.393 192.096L282.403 290.757L252.915 294.548ZM249.455 196.485L255.013 292.043L279.814 288.851L263.541 194.578L249.455 196.485Z" fill="#263238"/>
<path d="M292.469 171.213L240.391 181.21L243.895 200.317L295.103 189.456L292.469 171.213Z" fill="#FF993A"/>
<path d="M243.003 201.648L239.142 180.324L293.452 169.906L296.398 190.321L243.003 201.648ZM241.686 182.075L244.789 198.988L293.898 188.592L291.666 172.522L241.686 182.075Z" fill="#263238"/>
<path d="M267.536 76.4753C267.536 76.4753 277.157 68.2074 285.907 70.4018C294.657 72.5963 301.22 85.1645 296.845 92.9891C292.47 100.814 278.474 97.777 278.474 97.777L266.219 82.5489L267.536 76.4753Z" fill="#263238"/>
<path d="M284.545 99.4846C282.423 99.4901 280.307 99.2822 278.228 98.864H277.848L265.013 82.9265L266.508 75.9664L266.798 75.7225C267.223 75.3679 276.977 67.0999 286.174 69.4052C288.788 70.2233 291.185 71.6113 293.19 73.4675C295.194 75.3237 296.755 77.6012 297.76 80.1336C298.798 82.2304 299.338 84.5356 299.338 86.8721C299.338 89.2086 298.798 91.5139 297.76 93.6106C295.103 98.4207 289.165 99.4846 284.545 99.4846ZM279.098 96.7804C281.33 97.1794 292.335 98.7975 295.885 92.4801C296.731 90.6657 297.155 88.6851 297.124 86.6856C297.093 84.6862 296.608 82.7194 295.706 80.9316C294.84 78.7136 293.487 76.7152 291.746 75.0817C290.004 73.4483 287.918 72.2209 285.639 71.4888C278.361 69.6933 270.147 75.922 268.54 77.119L267.424 82.3059L279.098 96.7804Z" fill="#263238"/>
<path d="M229.901 83.437C229.901 83.437 215.459 91.6828 212.4 104.295C209.342 116.908 222.892 142.953 225.972 148.628C229.053 154.302 238.205 161.661 250.036 166.892C261.867 172.124 275.841 173.409 282.85 169.109C289.859 164.809 291.6 138.675 292.047 128.257C292.493 117.839 279.792 90.4415 277.158 84.7891C274.523 79.1368 253.094 66.9232 229.901 83.437Z" fill="white"/>
<path d="M271.264 172.633C263.774 172.5 256.39 170.848 249.566 167.779C238.227 162.769 228.338 155.255 225.012 149.049C221.038 141.689 208.248 116.686 211.351 103.94C214.453 91.195 228.249 83.0379 229.342 82.4172C243.941 72.0213 257.156 73.3734 263.741 75.1024C271.42 77.1195 276.822 81.1981 278.228 84.1683C283.987 96.5813 293.586 118.792 293.207 128.146C292.626 141.845 290.595 165.474 283.474 169.885C279.73 171.883 275.509 172.834 271.264 172.633ZM254.321 76.1442C245.731 76.2569 237.402 79.0915 230.548 84.2348C230.414 84.2348 216.485 92.4141 213.56 104.384C210.592 116.686 224.253 142.82 226.954 147.94C230.079 153.726 239.544 160.863 250.482 165.673C262.469 170.971 275.84 171.902 282.246 167.89C286.711 165.097 289.992 150.157 290.93 127.991C291.198 121.496 285.818 105.825 276.152 85.0328C275.17 82.9492 270.482 79.1145 263.138 77.186C260.252 76.4966 257.289 76.1763 254.321 76.2328V76.1442Z" fill="#263238"/>
<path d="M279.791 90.6175C278.63 88.0241 277.693 85.9626 277.157 84.81C274.545 79.1798 253.094 67.0771 229.901 83.5244C229.901 83.5244 215.458 91.7702 212.4 104.383C209.543 116.153 221.195 139.693 225.235 147.341L229.901 138.275C229.901 138.275 238.205 133.487 236.464 129.142C234.722 124.798 224.655 119.589 231.218 106.976C237.781 94.3636 260.773 80.1994 279.791 90.6175Z" fill="#263238"/>
<path d="M225.236 149.647L224.232 147.763C219.388 138.586 208.405 115.932 211.307 104.029C214.454 91.106 228.741 82.8159 229.343 82.4613C243.875 72.1318 257.112 73.4618 263.698 75.1907C271.376 77.2078 276.778 81.2864 278.185 84.2567C278.698 85.4093 279.658 87.4708 280.819 90.0642L282.158 93.0567L279.256 91.4829C275.629 89.6072 271.657 88.4793 267.579 88.1669C263.501 87.8546 259.402 88.3642 255.528 89.6652C245.683 92.6355 236.085 99.9503 232.201 107.398C227.736 116.265 231.62 120.986 234.857 124.821C235.915 125.959 236.802 127.243 237.491 128.633C239.411 133.377 232.469 137.943 230.794 138.963L225.236 149.647ZM254.255 76.2325C245.665 76.3452 237.336 79.1799 230.482 84.3232C230.259 84.4784 216.329 92.569 213.405 104.539C210.838 115.156 220.705 136.148 225.169 144.815L228.986 137.389L229.276 137.212C231.219 136.103 236.487 132.269 235.37 129.476C234.773 128.304 234.022 127.216 233.138 126.239C229.879 122.36 224.946 116.486 230.214 106.29C234.366 98.3544 244.5 90.5962 254.769 87.4486C262.169 84.997 270.206 85.2326 277.448 88.1136C276.868 86.828 276.377 85.897 276.064 85.099C275.082 83.0154 270.394 79.1807 263.05 77.2522C260.196 76.5479 257.263 76.2053 254.322 76.2325H254.255Z" fill="#263238"/>
<path d="M236.462 141.599C236.462 141.599 225.078 127.679 218.604 132.024C212.131 136.368 216.863 146.365 219.921 149.402C222.979 152.439 230.435 152.882 232.623 150.71" fill="white"/>
<path d="M227.781 153.261C224.601 153.356 221.496 152.292 219.053 150.268C215.823 146.774 214.08 142.175 214.186 137.434C214.28 136.18 214.663 134.964 215.305 133.88C215.948 132.796 216.833 131.873 217.892 131.183C225.236 126.329 236.843 140.36 237.335 140.958L235.593 142.355C232.602 138.698 223.829 129.92 219.142 133.023C218.351 133.528 217.69 134.21 217.213 135.015C216.737 135.819 216.457 136.724 216.396 137.656C216.33 141.749 217.839 145.713 220.615 148.739C223.428 151.51 230.124 151.643 231.776 150.047L233.361 151.62C231.775 152.844 229.782 153.43 227.781 153.261Z" fill="#263238"/>
<path d="M273.229 138.852C272.944 138.853 272.67 138.745 272.462 138.552C272.255 138.358 272.13 138.093 272.113 137.811C272.104 137.665 272.123 137.519 272.171 137.381C272.219 137.243 272.294 137.116 272.392 137.007C272.489 136.898 272.607 136.809 272.739 136.745C272.872 136.681 273.015 136.644 273.162 136.636C275.858 136.575 278.517 136.003 280.997 134.951C279.188 133 277.141 131.279 274.903 129.831C273.491 128.933 272.188 127.877 271.019 126.683C269.568 124.777 270.706 116.952 271.242 113.672C271.289 113.378 271.452 113.115 271.695 112.94C271.938 112.765 272.241 112.694 272.537 112.741C272.833 112.788 273.098 112.95 273.274 113.191C273.449 113.432 273.522 113.732 273.474 114.026C272.671 118.748 272.224 124.422 272.827 125.353C273.897 126.33 275.039 127.226 276.242 128.035C280.416 131.072 283.162 133.178 283.296 134.951C283.322 135.207 283.289 135.466 283.201 135.708C283.112 135.95 282.969 136.168 282.783 136.348C280.841 138.298 274.546 138.786 273.318 138.852H273.229Z" fill="#263238"/>
<path d="M267.379 148.539C264.977 148.394 262.629 147.773 260.474 146.71C258.319 145.648 256.401 144.167 254.834 142.355C254.693 142.12 254.643 141.842 254.692 141.574C254.742 141.305 254.887 141.063 255.102 140.893C255.317 140.723 255.587 140.636 255.862 140.648C256.137 140.659 256.398 140.77 256.597 140.958C256.843 141.291 263.294 148.96 271.933 145.391C272.206 145.287 272.509 145.291 272.779 145.402C273.049 145.514 273.265 145.724 273.383 145.99C273.438 146.125 273.465 146.27 273.463 146.415C273.461 146.561 273.43 146.705 273.372 146.839C273.314 146.973 273.23 147.094 273.124 147.195C273.019 147.297 272.895 147.377 272.758 147.431C271.056 148.148 269.228 148.525 267.379 148.539Z" fill="#263238"/>
<path d="M258.338 129.92C259.793 129.92 260.972 128.173 260.972 126.018C260.972 123.864 259.793 122.117 258.338 122.117C256.883 122.117 255.704 123.864 255.704 126.018C255.704 128.173 256.883 129.92 258.338 129.92Z" fill="#263238"/>
<path d="M282.848 119.057C282.848 121.274 281.665 122.981 280.214 122.981C278.763 122.981 277.603 121.23 277.603 119.057C277.603 116.885 278.763 115.156 280.214 115.156C281.665 115.156 282.848 116.907 282.848 119.057Z" fill="#263238"/>
<path d="M245.659 122.338H245.325C245.183 122.295 245.052 122.225 244.938 122.131C244.825 122.038 244.731 121.923 244.663 121.793C244.594 121.663 244.552 121.521 244.539 121.375C244.527 121.229 244.543 121.081 244.588 120.942C244.588 120.631 247.133 113.294 258.651 111.92C258.947 111.885 259.245 111.968 259.479 112.151C259.714 112.334 259.866 112.601 259.901 112.895C259.937 113.189 259.853 113.485 259.669 113.718C259.485 113.951 259.215 114.101 258.919 114.137C248.807 115.356 246.731 121.562 246.709 121.629C246.63 121.841 246.486 122.023 246.298 122.15C246.11 122.277 245.887 122.343 245.659 122.338Z" fill="#263238"/>
<path d="M273.229 111.477C272.959 111.479 272.697 111.385 272.492 111.211C272.271 111.014 272.135 110.74 272.114 110.446C272.093 110.152 272.189 109.862 272.381 109.637C274.149 107.696 276.587 106.486 279.211 106.245C280.472 106.224 281.722 106.473 282.878 106.974C284.033 107.475 285.066 108.217 285.908 109.149C286.012 109.252 286.096 109.375 286.152 109.51C286.209 109.645 286.238 109.79 286.238 109.936C286.238 110.082 286.209 110.227 286.152 110.362C286.096 110.497 286.012 110.62 285.908 110.723C285.699 110.926 285.419 111.04 285.127 111.04C284.834 111.04 284.554 110.926 284.345 110.723C283.718 110.04 282.957 109.491 282.109 109.11C281.26 108.729 280.343 108.524 279.412 108.506C277.392 108.739 275.523 109.683 274.144 111.166C274.027 111.286 273.883 111.376 273.724 111.43C273.565 111.484 273.395 111.5 273.229 111.477Z" fill="#263238"/>
</svg>
