<svg width="354" height="70" viewBox="0 0 354 70" fill="none" xmlns="http://www.w3.org/2000/svg">
<g clip-path="url(#clip0_204_766)">
<path d="M327.867 49.6974C327.831 49.0506 327.795 48.5475 327.795 48.0444C327.795 45.565 327.795 43.0675 327.795 40.5881C327.795 39.7616 327.759 38.9351 327.668 38.1086C327.452 36.3658 326.44 35.1979 324.958 34.8925C323.349 34.5511 321.687 35.2878 320.783 36.7251C320.114 37.8211 319.897 39.0429 319.897 40.3006C319.897 42.8879 319.897 45.4751 319.897 48.0624C319.897 48.5655 319.843 49.0686 319.825 49.6435H314.891C314.891 49.0147 314.891 48.4757 314.891 47.9187C314.891 45.0619 314.891 42.2231 314.855 39.3663C314.855 38.7015 314.747 38.0188 314.584 37.372C313.843 34.3714 310.229 34.1918 308.566 35.8088C307.446 36.9048 307.012 38.2344 307.012 39.7436C307.012 42.4926 307.012 45.2416 307.012 47.9726C307.012 48.4757 307.012 48.9967 307.012 49.6076H302.042V31.1553H306.325C306.47 31.7123 306.65 32.3412 306.849 33.1317C308.476 31.4069 310.446 30.5804 312.831 30.6343C315.235 30.7062 317.205 31.4967 318.632 33.6168C318.94 33.3473 319.229 33.1497 319.464 32.8981C322.048 30.1312 326.783 30.1671 329.205 31.4608C331.554 32.7185 332.584 34.8745 332.711 37.336C332.891 40.8037 332.783 44.2713 332.801 47.739C332.801 48.314 332.801 48.8709 332.801 49.4279C332.602 49.5357 332.458 49.6615 332.331 49.6615C330.922 49.6615 329.512 49.6615 327.885 49.6615L327.867 49.6974Z" fill="#192A5D"/>
<path d="M133.807 49.6787H129.216C128.855 48.5827 128.728 33.5981 129.072 31.1545H133.264C133.427 31.8014 133.572 32.4302 133.771 33.2208C135.469 31.2624 137.493 30.5976 139.879 30.6335C142.301 30.6694 144.18 31.6576 145.626 33.652C146.837 32.3943 148.066 31.3342 149.692 30.9569C154.337 29.8968 158.331 31.3522 159.433 36.1135C159.596 36.8142 159.722 37.5509 159.74 38.2695C159.777 41.9528 159.758 45.6181 159.758 49.3014C159.758 49.3912 159.668 49.481 159.596 49.6427H154.861C154.825 49.1936 154.771 48.7624 154.771 48.3132C154.771 45.4564 154.771 42.6176 154.752 39.7608C154.752 38.9882 154.644 38.2156 154.463 37.461C153.704 34.2449 150.054 34.2269 148.409 35.8799C147.433 36.8501 146.963 38.018 146.963 39.3655C146.927 42.1684 146.927 44.9533 146.909 47.7562C146.909 48.3132 146.909 48.8881 146.909 49.5888C145.21 49.8404 143.638 49.6607 141.975 49.7146C141.939 49.0498 141.903 48.5467 141.903 48.0257C141.903 45.3306 141.903 42.6356 141.903 39.9405C141.903 39.1679 141.777 38.3953 141.632 37.6407C141.325 36.1314 140.421 35.1073 138.867 34.8378C137.24 34.5683 135.885 35.1253 134.927 36.5088C134.024 37.8204 133.933 39.3296 133.915 40.8209C133.861 43.2105 133.915 45.5822 133.915 47.9718C133.915 48.4749 133.915 48.978 133.915 49.6427L133.807 49.6787Z" fill="#192A5D"/>
<path d="M251.892 37.7666C251.132 38.5751 250.446 39.2039 249.904 39.9586C249.632 40.3359 249.542 40.9108 249.542 41.3959C249.506 43.57 249.542 45.744 249.542 47.918C249.542 48.4211 249.542 48.9421 249.542 49.4093C248.349 49.7866 246.506 49.8405 244.608 49.553V23.4647H249.47V33.2568C249.578 33.3107 249.669 33.3646 249.777 33.4185C250.12 33.0772 250.464 32.7537 250.789 32.4124C253.265 29.7353 255.759 27.0941 258.181 24.3811C258.831 23.6444 259.518 23.339 260.494 23.3749C261.94 23.4288 263.404 23.3749 265.084 23.3749C264.199 24.974 262.97 25.9262 261.958 27.0582C260.946 28.1721 259.916 29.2681 258.867 30.3641C257.801 31.496 256.735 32.628 255.56 33.8497C258.867 39.0782 262.157 44.2707 265.536 49.6249H259.355C256.934 45.762 254.476 41.8272 251.928 37.7486L251.892 37.7666Z" fill="#192A5D"/>
<path d="M168.487 47.4516V57.6749C166.843 58.0523 165.307 57.7648 163.789 57.8726C163.409 56.7227 163.319 33.1678 163.662 31.1195H167.855C168.018 31.7124 168.216 32.3952 168.451 33.2037C168.759 32.9881 169.048 32.8264 169.283 32.5928C171.921 29.8079 177.469 30.311 179.999 32.2335C184.734 35.8089 185.168 43.0856 181.445 47.1462C179.855 48.889 177.885 49.967 175.445 50.0749C172.879 50.1827 170.566 49.6975 168.505 47.4337L168.487 47.4516ZM173.548 35.0184C170.963 34.8926 168.415 36.8151 168.397 40.4445C168.397 43.6067 170.638 45.6909 173.728 45.7088C176.096 45.7268 178.825 43.984 178.807 40.3367C178.789 36.869 176.222 34.8387 173.548 35.0004V35.0184Z" fill="#192A5D"/>
<path d="M103.265 31.9276C102.849 31.9635 102.596 32.0174 102.343 32.0174C100.879 32.0174 99.4152 32.0174 97.9152 32.0174C97.7706 31.7479 97.6441 31.5323 97.5538 31.2987C96.3791 28.2803 93.9935 27.4178 91.3731 27.5077C87.4875 27.6694 84.9032 30.0051 84.1441 33.8141C83.6381 36.3655 83.7465 38.8629 84.7586 41.2705C86.7646 46.0138 91.9875 46.3732 95.0237 44.8999C96.2526 44.307 96.867 43.5344 97.8971 41.4322H103.228C102.795 44.2531 101.457 46.3912 99.2164 48.0441C95.4574 50.8111 87.7586 50.7392 84.0538 48.0441C81.8128 46.4091 80.2767 44.3249 79.4815 41.7377C78.4694 38.4497 78.4333 35.1258 79.373 31.8018C80.7646 26.9507 84.4333 23.4471 90.4152 22.9979C92.4212 22.8362 94.4092 23.0339 96.2887 23.6807C100.174 25.0102 102.451 27.7592 103.228 31.9456L103.265 31.9276Z" fill="#192A5D"/>
<path d="M348.903 38.5574C348.831 36.3475 348.018 35.2335 346.428 34.8382C344.205 34.2992 342.578 35.0538 341.349 37.2458H336.65C336.668 35.0538 337.807 33.5446 339.397 32.3048C342.343 29.9871 348.632 30.2207 351.108 32.1431C352.5 33.2212 353.367 34.5507 353.729 36.2217C353.873 36.9224 353.964 37.6591 353.982 38.3777C354 41.8993 353.982 45.4029 353.982 48.9245C353.982 49.1221 353.909 49.3197 353.837 49.715H349.771C349.572 48.8706 349.409 48.1339 349.193 47.2535C348.867 47.5769 348.596 47.8464 348.325 48.1159C347.096 49.3377 345.65 50.0384 343.861 50.0564C342.452 50.0564 341.042 50.1103 339.687 49.5892C337.446 48.7268 336.144 46.966 336.108 44.6303C336.054 42.1688 337.229 40.3541 339.506 39.4019C341.168 38.7012 342.958 38.6113 344.729 38.5574C346.084 38.5035 347.422 38.5574 348.885 38.5574H348.903ZM348.759 41.8454C347.006 41.8454 345.506 41.8454 344.006 41.8454C343.644 41.8454 343.283 41.9352 342.94 42.061C342.018 42.3665 341.476 43.139 341.458 44.0374C341.458 44.9897 341.946 45.6724 342.813 45.906C343.59 46.1216 344.476 46.2474 345.253 46.0857C347.476 45.6544 348.199 43.9116 348.759 41.8454Z" fill="#192A5D"/>
<path d="M199.518 38.5578C199.662 36.258 198.722 35.0362 196.734 34.8026C194.891 34.587 193.301 34.9284 192.379 36.779C192.252 37.0305 191.837 37.3001 191.548 37.3001C190.21 37.354 188.855 37.318 187.391 37.318C187.499 34.9643 188.602 33.3832 190.355 32.1794C192.144 30.9577 194.186 30.5983 196.319 30.6342C197.728 30.6522 199.138 30.7959 200.457 31.3709C202.915 32.4489 204.505 34.3175 204.614 36.9407C204.795 41.1271 204.668 45.3134 204.668 49.6076H200.475C200.349 48.9068 200.204 48.1522 200.024 47.182C199.698 47.5054 199.499 47.6851 199.319 47.8827C198.018 49.2662 196.445 50.0567 194.475 50.0567C193.12 50.0567 191.765 50.0747 190.463 49.5716C188.078 48.6553 186.903 46.8765 186.849 44.451C186.795 42.3668 187.752 40.5162 190.301 39.3842C191.963 38.6476 193.752 38.5937 195.524 38.5398C196.825 38.5039 198.126 38.5398 199.518 38.5398V38.5578ZM199.283 41.72C198.451 41.72 197.728 41.684 197.024 41.72C195.939 41.7918 194.837 41.8278 193.789 42.0434C192.831 42.241 192.144 43.2292 192.144 44.0737C192.144 44.9181 192.686 45.6188 193.698 45.9782C194.078 46.1219 194.493 46.2118 194.909 46.2297C197.24 46.3375 199.12 44.5049 199.283 41.72Z" fill="#192A5D"/>
<path d="M278.782 38.5571C278.728 36.2753 277.933 35.1793 276.252 34.82C274.029 34.3528 272.457 35.0895 271.264 37.3174C270.541 37.3174 269.71 37.3174 268.879 37.3174C268.102 37.3174 267.342 37.3174 266.493 37.3174C266.8 34.3169 268.373 32.4304 270.903 31.4242C273.812 30.2563 276.83 30.2563 279.758 31.4601C282.234 32.4843 283.662 34.4427 283.734 37.1018C283.861 41.0905 283.788 45.0613 283.788 49.05C283.788 49.1937 283.716 49.3374 283.662 49.6069H279.65C279.487 48.9062 279.306 48.1336 279.126 47.3611C278.981 47.397 278.855 47.397 278.8 47.4509C276.379 50.4694 273.18 50.5592 269.836 49.6429C267.361 48.9601 266.077 47.0736 266.023 44.5761C265.969 42.0607 267.198 40.3179 269.62 39.3297C271.3 38.647 273.071 38.611 274.861 38.5571C276.144 38.5212 277.445 38.5571 278.728 38.5571H278.782ZM278.728 41.6295C276.849 41.7194 275.204 41.8092 273.559 41.917C273.252 41.935 272.945 42.0248 272.656 42.1506C271.824 42.5099 271.318 43.1927 271.318 44.0731C271.318 44.9714 271.861 45.6003 272.71 45.9237C273.559 46.2471 274.409 46.3369 275.294 46.0854C277.391 45.4925 278.114 43.8575 278.692 41.6295H278.728Z" fill="#192A5D"/>
<path d="M241.066 41.648H226.915C227.114 43.7143 228.09 45.0259 229.843 45.6727C231.56 46.3195 233.331 46.2297 234.596 44.7563C235.355 43.876 236.132 43.6603 237.162 43.7322C238.192 43.7861 239.24 43.7322 240.451 43.7322C239.999 45.6906 239.005 47.11 237.578 48.1701C234.361 50.5597 230.746 50.7574 227.204 49.2122C223.698 47.685 221.999 44.7384 221.873 40.9293C221.782 38.3061 222.397 35.9165 224.132 33.8683C225.65 32.0895 227.529 30.9396 229.879 30.742C231.216 30.6342 232.626 30.5982 233.945 30.8138C237.74 31.4607 240.849 35.0361 241.048 38.8631C241.102 39.7255 241.048 40.6059 241.048 41.648H241.066ZM227.096 38.378H235.897C235.535 36.0602 234.09 34.8025 231.939 34.7307C229.517 34.6408 227.186 36.186 227.114 38.378H227.096Z" fill="#192A5D"/>
<path d="M125.367 40.4082C125.566 45.2054 122.041 48.9785 118.246 49.8409C111.017 51.4579 106.084 46.3193 106.011 40.5699C105.957 35.4672 109.409 31.748 113.06 30.9215C119.168 29.538 123.921 32.844 125.078 37.9646C125.258 38.7552 125.258 39.5996 125.349 40.4261L125.367 40.4082ZM120.18 40.3004C120.18 39.8871 120.234 39.4739 120.18 39.0606C119.891 36.9225 118.355 35.3234 116.276 34.9641C114.56 34.6766 112.608 35.7008 111.813 37.4256C110.891 39.42 110.891 41.4502 111.867 43.4087C113.186 46.0858 116.764 46.5709 118.843 44.4328C119.963 43.2829 120.288 41.8455 120.18 40.3004Z" fill="#192A5D"/>
<path d="M212.964 31.1191C213.126 32.1432 213.271 33.0416 213.434 34.1376C215.241 31.8378 217.265 30.4543 220.301 30.7238C220.392 32.3408 220.392 33.9579 220.301 35.6288C219.253 35.7546 218.277 35.8444 217.301 36.0061C215.241 36.3295 214.066 37.5693 213.723 39.5816C213.578 40.444 213.506 41.3244 213.488 42.2048C213.452 44.6304 213.488 47.0559 213.488 49.6791C211.825 49.769 210.253 49.751 208.572 49.6791V31.1191H212.964Z" fill="#192A5D"/>
<path d="M299.403 30.7419V35.593C299.042 35.6469 298.698 35.7008 298.355 35.7547C297.578 35.8625 296.783 35.8985 296.042 36.0781C294.217 36.5273 293.042 37.785 292.879 39.6716C292.698 41.6839 292.68 43.6962 292.626 45.7085C292.59 46.9842 292.626 48.2599 292.626 49.6254H287.982C287.656 48.4755 287.584 33.0597 287.891 31.1192H292.084C292.247 32.0535 292.409 32.9519 292.608 34.0479C294.397 31.9277 296.367 30.4005 299.403 30.7239V30.7419Z" fill="#192A5D"/>
<path d="M327.867 49.6974C327.831 49.0506 327.795 48.5475 327.795 48.0444C327.795 45.565 327.795 43.0675 327.795 40.5881C327.795 39.7616 327.759 38.9351 327.668 38.1086C327.452 36.3658 326.44 35.1979 324.958 34.8925C323.349 34.5511 321.687 35.2878 320.783 36.7251C320.114 37.8211 319.897 39.0429 319.897 40.3006C319.897 42.8879 319.897 45.4751 319.897 48.0624C319.897 48.5655 319.843 49.0686 319.825 49.6435H314.891C314.891 49.0147 314.891 48.4757 314.891 47.9187C314.891 45.0619 314.891 42.2231 314.855 39.3663C314.855 38.7015 314.747 38.0188 314.584 37.372C313.843 34.3714 310.229 34.1918 308.566 35.8088C307.446 36.9048 307.012 38.2344 307.012 39.7436C307.012 42.4926 307.012 45.2416 307.012 47.9726C307.012 48.4757 307.012 48.9967 307.012 49.6076H302.042V31.1553H306.325C306.47 31.7123 306.65 32.3412 306.849 33.1317C308.476 31.4069 310.446 30.5804 312.831 30.6343C315.235 30.7062 317.205 31.4967 318.632 33.6168C318.94 33.3473 319.229 33.1497 319.464 32.8981C322.048 30.1312 326.783 30.1671 329.205 31.4608C331.554 32.7185 332.584 34.8745 332.711 37.336C332.891 40.8037 332.783 44.2713 332.801 47.739C332.801 48.314 332.801 48.8709 332.801 49.4279C332.602 49.5357 332.458 49.6615 332.331 49.6615C330.922 49.6615 329.512 49.6615 327.885 49.6615L327.867 49.6974Z" fill="#192A5D"/>
<path d="M133.807 49.6787H129.216C128.855 48.5827 128.728 33.5981 129.072 31.1545H133.264C133.427 31.8014 133.572 32.4302 133.771 33.2208C135.469 31.2624 137.493 30.5976 139.879 30.6335C142.301 30.6694 144.18 31.6576 145.626 33.652C146.837 32.3943 148.066 31.3342 149.692 30.9569C154.337 29.8968 158.331 31.3522 159.433 36.1135C159.596 36.8142 159.722 37.5509 159.74 38.2695C159.777 41.9528 159.758 45.6181 159.758 49.3014C159.758 49.3912 159.668 49.481 159.596 49.6427H154.861C154.825 49.1936 154.771 48.7624 154.771 48.3132C154.771 45.4564 154.771 42.6176 154.752 39.7608C154.752 38.9882 154.644 38.2156 154.463 37.461C153.704 34.2449 150.054 34.2269 148.409 35.8799C147.433 36.8501 146.963 38.018 146.963 39.3655C146.927 42.1684 146.927 44.9533 146.909 47.7562C146.909 48.3132 146.909 48.8881 146.909 49.5888C145.21 49.8404 143.638 49.6607 141.975 49.7146C141.939 49.0498 141.903 48.5467 141.903 48.0257C141.903 45.3306 141.903 42.6356 141.903 39.9405C141.903 39.1679 141.777 38.3953 141.632 37.6407C141.325 36.1314 140.421 35.1073 138.867 34.8378C137.24 34.5683 135.885 35.1253 134.927 36.5088C134.024 37.8204 133.933 39.3296 133.915 40.8209C133.861 43.2105 133.915 45.5822 133.915 47.9718C133.915 48.4749 133.915 48.978 133.915 49.6427L133.807 49.6787Z" fill="#192A5D"/>
<path d="M251.892 37.7666C251.132 38.5751 250.446 39.2039 249.904 39.9586C249.632 40.3359 249.542 40.9108 249.542 41.3959C249.506 43.57 249.542 45.744 249.542 47.918C249.542 48.4211 249.542 48.9421 249.542 49.4093C248.349 49.7866 246.506 49.8405 244.608 49.553V23.4647H249.47V33.2568C249.578 33.3107 249.669 33.3646 249.777 33.4185C250.12 33.0772 250.464 32.7537 250.789 32.4124C253.265 29.7353 255.759 27.0941 258.181 24.3811C258.831 23.6444 259.518 23.339 260.494 23.3749C261.94 23.4288 263.404 23.3749 265.084 23.3749C264.199 24.974 262.97 25.9262 261.958 27.0582C260.946 28.1721 259.916 29.2681 258.867 30.3641C257.801 31.496 256.735 32.628 255.56 33.8497C258.867 39.0782 262.157 44.2707 265.536 49.6249H259.355C256.934 45.762 254.476 41.8272 251.928 37.7486L251.892 37.7666Z" fill="#192A5D"/>
<path d="M168.487 47.4516V57.6749C166.843 58.0523 165.307 57.7648 163.789 57.8726C163.409 56.7227 163.319 33.1678 163.662 31.1195H167.855C168.018 31.7124 168.216 32.3952 168.451 33.2037C168.759 32.9881 169.048 32.8264 169.283 32.5928C171.921 29.8079 177.469 30.311 179.999 32.2335C184.734 35.8089 185.168 43.0856 181.445 47.1462C179.855 48.889 177.885 49.967 175.445 50.0749C172.879 50.1827 170.566 49.6975 168.505 47.4337L168.487 47.4516ZM173.548 35.0184C170.963 34.8926 168.415 36.8151 168.397 40.4445C168.397 43.6067 170.638 45.6909 173.728 45.7088C176.096 45.7268 178.825 43.984 178.807 40.3367C178.789 36.869 176.222 34.8387 173.548 35.0004V35.0184Z" fill="#192A5D"/>
<path d="M103.265 31.9276C102.849 31.9635 102.596 32.0174 102.343 32.0174C100.879 32.0174 99.4152 32.0174 97.9152 32.0174C97.7706 31.7479 97.6441 31.5323 97.5538 31.2987C96.3791 28.2803 93.9935 27.4178 91.3731 27.5077C87.4875 27.6694 84.9032 30.0051 84.1441 33.8141C83.6381 36.3655 83.7465 38.8629 84.7586 41.2705C86.7646 46.0138 91.9875 46.3732 95.0237 44.8999C96.2526 44.307 96.867 43.5344 97.8971 41.4322H103.228C102.795 44.2531 101.457 46.3912 99.2164 48.0441C95.4574 50.8111 87.7586 50.7392 84.0538 48.0441C81.8128 46.4091 80.2767 44.3249 79.4815 41.7377C78.4694 38.4497 78.4333 35.1258 79.373 31.8018C80.7646 26.9507 84.4333 23.4471 90.4152 22.9979C92.4212 22.8362 94.4092 23.0339 96.2887 23.6807C100.174 25.0102 102.451 27.7592 103.228 31.9456L103.265 31.9276Z" fill="#192A5D"/>
<path d="M348.903 38.5574C348.831 36.3475 348.018 35.2335 346.428 34.8382C344.205 34.2992 342.578 35.0538 341.349 37.2458H336.65C336.668 35.0538 337.807 33.5446 339.397 32.3048C342.343 29.9871 348.632 30.2207 351.108 32.1431C352.5 33.2212 353.367 34.5507 353.729 36.2217C353.873 36.9224 353.964 37.6591 353.982 38.3777C354 41.8993 353.982 45.4029 353.982 48.9245C353.982 49.1221 353.909 49.3197 353.837 49.715H349.771C349.572 48.8706 349.409 48.1339 349.193 47.2535C348.867 47.5769 348.596 47.8464 348.325 48.1159C347.096 49.3377 345.65 50.0384 343.861 50.0564C342.452 50.0564 341.042 50.1103 339.687 49.5892C337.446 48.7268 336.144 46.966 336.108 44.6303C336.054 42.1688 337.229 40.3541 339.506 39.4019C341.168 38.7012 342.958 38.6113 344.729 38.5574C346.084 38.5035 347.422 38.5574 348.885 38.5574H348.903ZM348.759 41.8454C347.006 41.8454 345.506 41.8454 344.006 41.8454C343.644 41.8454 343.283 41.9352 342.94 42.061C342.018 42.3665 341.476 43.139 341.458 44.0374C341.458 44.9897 341.946 45.6724 342.813 45.906C343.59 46.1216 344.476 46.2474 345.253 46.0857C347.476 45.6544 348.199 43.9116 348.759 41.8454Z" fill="#192A5D"/>
<path d="M199.518 38.5578C199.662 36.258 198.722 35.0362 196.734 34.8026C194.891 34.587 193.301 34.9284 192.379 36.779C192.252 37.0305 191.837 37.3001 191.548 37.3001C190.21 37.354 188.855 37.318 187.391 37.318C187.499 34.9643 188.602 33.3832 190.355 32.1794C192.144 30.9577 194.186 30.5983 196.319 30.6342C197.728 30.6522 199.138 30.7959 200.457 31.3709C202.915 32.4489 204.505 34.3175 204.614 36.9407C204.795 41.1271 204.668 45.3134 204.668 49.6076H200.475C200.349 48.9068 200.204 48.1522 200.024 47.182C199.698 47.5054 199.499 47.6851 199.319 47.8827C198.018 49.2662 196.445 50.0567 194.475 50.0567C193.12 50.0567 191.765 50.0747 190.463 49.5716C188.078 48.6553 186.903 46.8765 186.849 44.451C186.795 42.3668 187.752 40.5162 190.301 39.3842C191.963 38.6476 193.752 38.5937 195.524 38.5398C196.825 38.5039 198.126 38.5398 199.518 38.5398V38.5578ZM199.283 41.72C198.451 41.72 197.728 41.684 197.024 41.72C195.939 41.7918 194.837 41.8278 193.789 42.0434C192.831 42.241 192.144 43.2292 192.144 44.0737C192.144 44.9181 192.686 45.6188 193.698 45.9782C194.078 46.1219 194.493 46.2118 194.909 46.2297C197.24 46.3375 199.12 44.5049 199.283 41.72Z" fill="#192A5D"/>
<path d="M278.782 38.5571C278.728 36.2753 277.933 35.1793 276.252 34.82C274.029 34.3528 272.457 35.0895 271.264 37.3174C270.541 37.3174 269.71 37.3174 268.879 37.3174C268.102 37.3174 267.342 37.3174 266.493 37.3174C266.8 34.3169 268.373 32.4304 270.903 31.4242C273.812 30.2563 276.83 30.2563 279.758 31.4601C282.234 32.4843 283.662 34.4427 283.734 37.1018C283.861 41.0905 283.788 45.0613 283.788 49.05C283.788 49.1937 283.716 49.3374 283.662 49.6069H279.65C279.487 48.9062 279.306 48.1336 279.126 47.3611C278.981 47.397 278.855 47.397 278.8 47.4509C276.379 50.4694 273.18 50.5592 269.836 49.6429C267.361 48.9601 266.077 47.0736 266.023 44.5761C265.969 42.0607 267.198 40.3179 269.62 39.3297C271.3 38.647 273.071 38.611 274.861 38.5571C276.144 38.5212 277.445 38.5571 278.728 38.5571H278.782ZM278.728 41.6295C276.849 41.7194 275.204 41.8092 273.559 41.917C273.252 41.935 272.945 42.0248 272.656 42.1506C271.824 42.5099 271.318 43.1927 271.318 44.0731C271.318 44.9714 271.861 45.6003 272.71 45.9237C273.559 46.2471 274.409 46.3369 275.294 46.0854C277.391 45.4925 278.114 43.8575 278.692 41.6295H278.728Z" fill="#192A5D"/>
<path d="M241.066 41.648H226.915C227.114 43.7143 228.09 45.0259 229.843 45.6727C231.56 46.3195 233.331 46.2297 234.596 44.7563C235.355 43.876 236.132 43.6603 237.162 43.7322C238.192 43.7861 239.24 43.7322 240.451 43.7322C239.999 45.6906 239.005 47.11 237.578 48.1701C234.361 50.5597 230.746 50.7574 227.204 49.2122C223.698 47.685 221.999 44.7384 221.873 40.9293C221.782 38.3061 222.397 35.9165 224.132 33.8683C225.65 32.0895 227.529 30.9396 229.879 30.742C231.216 30.6342 232.626 30.5982 233.945 30.8138C237.74 31.4607 240.849 35.0361 241.048 38.8631C241.102 39.7255 241.048 40.6059 241.048 41.648H241.066ZM227.096 38.378H235.897C235.535 36.0602 234.09 34.8025 231.939 34.7307C229.517 34.6408 227.186 36.186 227.114 38.378H227.096Z" fill="#192A5D"/>
<path d="M125.367 40.4082C125.566 45.2054 122.041 48.9785 118.246 49.8409C111.017 51.4579 106.084 46.3193 106.011 40.5699C105.957 35.4672 109.409 31.748 113.06 30.9215C119.168 29.538 123.921 32.844 125.078 37.9646C125.258 38.7552 125.258 39.5996 125.349 40.4261L125.367 40.4082ZM120.18 40.3004C120.18 39.8871 120.234 39.4739 120.18 39.0606C119.891 36.9225 118.355 35.3234 116.276 34.9641C114.56 34.6766 112.608 35.7008 111.813 37.4256C110.891 39.42 110.891 41.4502 111.867 43.4087C113.186 46.0858 116.764 46.5709 118.843 44.4328C119.963 43.2829 120.288 41.8455 120.18 40.3004Z" fill="#192A5D"/>
<path d="M212.964 31.1191C213.126 32.1432 213.271 33.0416 213.434 34.1376C215.241 31.8378 217.265 30.4543 220.301 30.7238C220.392 32.3408 220.392 33.9579 220.301 35.6288C219.253 35.7546 218.277 35.8444 217.301 36.0061C215.241 36.3295 214.066 37.5693 213.723 39.5816C213.578 40.444 213.506 41.3244 213.488 42.2048C213.452 44.6304 213.488 47.0559 213.488 49.6791C211.825 49.769 210.253 49.751 208.572 49.6791V31.1191H212.964Z" fill="#192A5D"/>
<path d="M299.403 30.7419V35.593C299.042 35.6469 298.698 35.7008 298.355 35.7547C297.578 35.8625 296.783 35.8985 296.042 36.0781C294.217 36.5273 293.042 37.785 292.879 39.6716C292.698 41.6839 292.68 43.6962 292.626 45.7085C292.59 46.9842 292.626 48.2599 292.626 49.6254H287.982C287.656 48.4755 287.584 33.0597 287.891 31.1192H292.084C292.247 32.0535 292.409 32.9519 292.608 34.0479C294.397 31.9277 296.367 30.4005 299.403 30.7239V30.7419Z" fill="#192A5D"/>
<path d="M42.9578 62.6874C27.5783 62.6874 15.1084 50.29 15.1084 35C15.1084 19.71 27.5783 7.31263 42.9578 7.31263C54.8675 7.31263 65.0241 14.751 69 25.2079C64.7349 10.6366 51.2349 0 35.2048 0C15.759 0 0 15.6674 0 35C0 54.3326 15.759 70 35.2048 70C51.2169 70 64.7349 59.3635 69 44.7921C65.0241 55.249 54.8675 62.6874 42.9578 62.6874Z" fill="#192A5D"/>
<path d="M37.4102 31.2089L55.88 49.5713C59.8379 45.9599 62.3499 40.7674 62.3499 35C62.3499 27.2741 57.8861 20.5903 51.38 17.3203L37.4102 31.2089Z" fill="#FF6600"/>
<path d="M32.1689 36.4375L24.6689 43.8939C27.94 50.362 34.6629 54.7999 42.4521 54.7999C44.8918 54.7999 47.2232 54.3328 49.3918 53.5422L32.187 36.4375H32.1689Z" fill="#FF6600"/>
<path d="M42.9945 15.2361C42.8137 15.2361 42.633 15.2002 42.4342 15.2002C31.4463 15.2002 22.5186 24.058 22.5186 35C22.5186 35.1797 22.5366 35.3593 22.5547 35.557L42.9945 15.2361Z" fill="#FF6600"/>
</g>
<defs>
<clipPath id="clip0_204_766">
<rect width="354" height="70" fill="white"/>
</clipPath>
</defs>
</svg>
